<svg width="25" height="24" viewBox="0 0 25 24" fill="none" xmlns="http://www.w3.org/2000/svg">
<path d="M5.15874 23.301H4.85294C3.74375 23.301 3.18917 23.301 2.84458 22.9663C2.5 22.6316 2.5 22.0928 2.5 21.0153V19.7445C2.5 19.1519 2.5 18.8557 2.65668 18.5911C2.81337 18.3264 3.04973 18.1929 3.52247 17.9258C6.63479 16.1673 11.0547 15.1775 14.0048 16.8868C14.2029 17.0016 14.3813 17.1402 14.5335 17.3064C15.1901 18.0229 15.1424 19.1041 14.3857 19.7457C14.2258 19.8812 14.0555 19.984 13.884 20.0197C14.0249 20.0038 14.16 19.9856 14.2889 19.9656C15.3612 19.7994 16.2612 19.2429 17.0852 18.6382L19.2113 17.0781C19.9608 16.528 21.0733 16.5279 21.8229 17.0777C22.4979 17.5728 22.7042 18.3879 22.2775 19.0522C21.78 19.8271 21.0789 20.8183 20.4058 21.4239C19.7317 22.0304 18.7281 22.5719 17.9088 22.956C17.0012 23.3816 15.9986 23.6268 14.9787 23.7872C12.9104 24.1124 10.7548 24.0628 8.70745 23.653C7.55004 23.4214 6.34799 23.301 5.15874 23.301Z" fill="#0277FA"/>
<g opacity="0.5" clip-path="url(#clip0_52_1280)">
<path d="M17.1337 9.40679L15.0868 7.01539C14.8585 6.74857 14.8908 6.34892 15.1591 6.12265L17.3551 4.26772C17.6231 4.04119 17.9553 3.8832 18.0967 3.91519C18.2381 3.9466 18.5507 3.76807 18.7949 3.51611L19.2874 3.00789C19.5317 2.75594 19.5677 2.35167 19.3677 2.10601C19.1677 1.85978 18.7666 1.81493 18.4721 2.00543L17.8802 2.38822C17.5854 2.57878 17.3462 2.84071 17.3462 2.9736C17.3462 3.10643 17.1291 3.39757 16.8611 3.62436L14.6342 5.51012C14.3662 5.73665 13.964 5.70466 13.7357 5.43784L13.073 4.66365C12.8447 4.39683 12.8064 3.97517 12.9684 3.70919C13.1301 3.44321 13.4052 2.96299 13.4061 2.61192C13.4069 2.19026 13.2098 1.58288 12.3716 0.898706C11.4567 0.151085 10.64 0.0142614 10.1114 0.0331174C9.76061 0.0454079 9.66916 0.364804 9.8926 0.635615L11.0096 1.98915C11.233 2.25996 11.2259 2.69307 10.9936 2.95647L10.9693 2.98421C10.7373 3.2473 10.3065 3.60929 10.0072 3.79296L9.9957 3.79984C9.69632 3.98326 9.2652 3.91839 9.03295 3.6553L7.87144 2.33969C7.63918 2.0766 7.30949 2.11657 7.24236 2.46112C7.16037 2.87995 7.14924 3.50015 7.46007 4.26032C7.59291 4.58512 7.8789 5.08105 8.10002 5.3536C8.52741 5.88041 8.94623 6.06892 9.27188 6.12007C9.61843 6.17465 10.1152 5.98467 10.3783 5.87841C10.6417 5.77216 11.0276 5.89354 11.2482 6.16692L11.9084 6.9854C12.1287 7.25852 12.1735 7.59362 12.0084 7.73328C11.8433 7.87326 11.5276 7.76758 11.3033 7.49761L11.273 7.46105C11.0491 7.19108 10.796 6.97195 10.7082 6.97195C10.6205 6.97195 10.5562 7.25647 10.5648 7.60759L10.5694 7.80471C10.578 8.15583 10.308 8.38862 9.96692 8.32522C9.62552 8.26183 9.12901 8.39093 8.85794 8.61374L5.9911 10.9666C5.71997 11.1894 5.5 11.5637 5.5 11.8025C5.5 12.0416 5.67769 12.4573 5.89708 12.7315L6.44443 13.4158C6.66382 13.69 7.03122 13.936 7.26516 13.9651C7.49915 13.9948 7.90737 13.8363 8.17734 13.6117L11.0493 11.2203C11.3189 10.9958 11.5489 10.5295 11.5626 10.1787L11.5658 10.0987C11.5795 9.74761 11.8683 9.52539 12.2111 9.60165L12.2415 9.60795C12.5843 9.68422 12.862 9.6631 12.862 9.56084C12.862 9.45858 12.7188 9.20258 12.5417 8.98949C12.3649 8.77666 12.3537 8.4924 12.5166 8.35469C12.6794 8.21697 12.9902 8.32669 13.2108 8.59982L15.1237 10.9718C15.344 11.245 15.5005 11.5618 15.487 11.6815C15.4791 11.7532 15.4748 11.8258 15.4748 11.8995C15.4748 13.0113 16.3758 13.9121 17.4873 13.9121C18.5989 13.9121 19.4999 13.0113 19.4999 11.8995C19.4999 11.0273 18.9449 10.2862 18.1687 10.0074C17.8388 9.88843 17.362 9.67361 17.1337 9.40679ZM17.4874 12.9852C16.8877 12.9852 16.4018 12.499 16.4018 11.8993C16.4018 11.2997 16.8878 10.8135 17.4874 10.8135C18.0873 10.8135 18.5733 11.2997 18.5733 11.8993C18.5732 12.499 18.0873 12.9852 17.4874 12.9852Z" fill="#0277FA"/>
</g>
<defs>
<clipPath id="clip0_52_1280">
<rect width="14" height="14" fill="white" transform="translate(5.5)"/>
</clipPath>
</defs>
</svg>
