<svg width="24" height="24" viewBox="0 0 24 24" fill="none" xmlns="http://www.w3.org/2000/svg">
  <g id="state=state2">
    <path id="Subtract" fill-rule="evenodd" clip-rule="evenodd" d="M2 12.2039C2 9.91549 2 8.77128 2.5192 7.82274C3.0384 6.87421 3.98695 6.28551 5.88403 5.10813L7.88403 3.86687C9.88939 2.62229 10.8921 2 12 2C13.1079 2 14.1106 2.62229 16.116 3.86687L18.116 5.10812C20.0131 6.28551 20.9616 6.87421 21.4808 7.82274C22 8.77128 22 9.91549 22 12.2039V13.725C22 17.6258 22 19.5763 20.8284 20.7881C19.6569 22 17.7712 22 14 22H10C6.22876 22 4.34315 22 3.17157 20.7881C2 19.5763 2 17.6258 2 13.725V12.2039ZM9.44666 16.3975C9.11389 16.1509 8.64418 16.2207 8.39752 16.5534C8.15086 16.8862 8.22067 17.3559 8.55343 17.6026C9.52585 18.3234 10.7151 18.75 12 18.75C13.285 18.75 14.4742 18.3234 15.4467 17.6026C15.7794 17.3559 15.8492 16.8862 15.6026 16.5534C15.3559 16.2207 14.8862 16.1509 14.5534 16.3975C13.8251 16.9374 12.9459 17.25 12 17.25C11.0541 17.25 10.175 16.9374 9.44666 16.3975ZM12 7C9.79086 7 8 8.64064 8 10.6645C8 12.6725 9.27666 15.0156 11.2685 15.8535C11.7329 16.0488 12.2671 16.0488 12.7315 15.8535C14.7233 15.0156 16 12.6725 16 10.6645C16 8.64064 14.2091 7 12 7ZM13.1429 10.9375C13.1429 11.5588 12.6312 12.0625 12 12.0625C11.3688 12.0625 10.8571 11.5588 10.8571 10.9375C10.8571 10.3162 11.3688 9.8125 12 9.8125C12.6312 9.8125 13.1429 10.3162 13.1429 10.9375Z" fill="#0079FF"/>
  </g>
</svg>
