<svg width="24" height="24" viewBox="0 0 24 24" fill="none" xmlns="http://www.w3.org/2000/svg">
  <g clip-path="url(#clip0_143_95)">
    <path d="M18.5296 12.7651C18.4966 9.73362 21.0099 8.25647 21.1312 8.19033C19.7091 6.11792 17.5045 5.83131 16.7328 5.80927C14.8809 5.61085 13.084 6.91161 12.1471 6.91161C11.2101 6.91161 9.73292 5.82029 8.16759 5.85336C6.1503 5.88643 4.26529 7.05492 3.24011 8.86276C1.11258 12.5556 2.69996 17.9792 4.7393 20.9665C5.76448 22.4326 6.95501 24.0641 8.52034 23.998C10.0526 23.9318 10.6258 23.0279 12.4667 23.0279C14.3077 23.0279 14.8258 23.998 16.4242 23.9649C18.0666 23.9428 19.1029 22.4988 20.0839 21.0216C21.2635 19.3461 21.7375 17.6925 21.7595 17.6154C21.7264 17.6044 18.5737 16.4028 18.5407 12.7651H18.5296Z" fill="#181818"/>
    <path d="M15.5199 3.84708C16.3467 2.8219 16.9089 1.42193 16.7435 -9.91821e-05C15.553 0.0550181 14.0648 0.826659 13.205 1.82979C12.4444 2.71167 11.772 4.16676 11.9483 5.53367C13.2822 5.63288 14.6601 4.86124 15.5199 3.84708Z" fill="#181818"/>
  </g>
  <defs>
    <clipPath id="clip0_143_95">
      <rect width="24" height="24" fill="white"/>
    </clipPath>
  </defs>
</svg>
