<svg width="45" height="44" viewBox="0 0 45 44" fill="none" xmlns="http://www.w3.org/2000/svg">
    <rect x="0.32666" width="44" height="44" rx="6" fill="#0079FF" fill-opacity="0.12"/>
    <path d="M24.3266 14H20.3266C16.5553 14 14.6697 14 13.4981 15.1716C12.6546 16.0151 12.4184 17.2288 12.3523 19.25H32.3009C32.2348 17.2288 31.9986 16.0151 31.155 15.1716C29.9835 14 28.0978 14 24.3266 14Z" fill="#0079FF"/>
    <path d="M20.3267 30H24.3267C28.0979 30 29.9836 30 31.1551 28.8284C32.3267 27.6569 32.3267 25.7712 32.3267 22C32.3267 21.5581 32.3267 21.142 32.3248 20.75H12.3286C12.3267 21.142 12.3267 21.5581 12.3267 22C12.3267 25.7712 12.3267 27.6569 13.4982 28.8284C14.6698 30 16.5554 30 20.3267 30Z" fill="#0079FF"/>
    <path fill-rule="evenodd" clip-rule="evenodd" d="M15.5767 26C15.5767 25.5858 15.9125 25.25 16.3267 25.25H20.3267C20.7409 25.25 21.0767 25.5858 21.0767 26C21.0767 26.4142 20.7409 26.75 20.3267 26.75H16.3267C15.9125 26.75 15.5767 26.4142 15.5767 26Z" fill="white"/>
    <path fill-rule="evenodd" clip-rule="evenodd" d="M22.0767 26C22.0767 25.5858 22.4125 25.25 22.8267 25.25H24.3267C24.7409 25.25 25.0767 25.5858 25.0767 26C25.0767 26.4142 24.7409 26.75 24.3267 26.75H22.8267C22.4125 26.75 22.0767 26.4142 22.0767 26Z" fill="white"/>
</svg>
