<svg width="192" height="221" viewBox="0 0 192 221" fill="none" xmlns="http://www.w3.org/2000/svg"><path d="M24.706 177.087q-.15-.144-.301-.281c-.459-.731.024-1.881-1.084-2.344-.177-.077-.124-.521-.095-.802.19-2.163 3.618-5.48 5.79-5.609.855-.053 1.671.052 2.588.592-.845-.864-1.752-.931-2.683-.993-1.346-.091-1.814-.611-1.82-1.938-.009-1.872.65-2.908 2.445-3.414 1.065-.3 1.308-1.102 1.604-1.923 1.795-4.908 3.824-9.71 6.148-14.384 1.848-3.713 3.8-7.37 6.345-10.673 4.32-5.614 10.077-8.717 17.018-9.734 7.657-1.122 15.285-2.353 22.742-4.473a6 6 0 0 1 .406-.1c2.024-.468 2.406-.153 2.458 1.904.096 3.729 1.18 7.156 3.25 10.25 2.445 3.651 6.073 5.508 10.193 6.621 2.329.63 4.702.606 7.079.563 1.809-.033 1.876-.014 2.521 1.719 1.837 4.945 3.255 10.015 4.339 15.17 2.253 10.727 5.27 21.248 8.602 31.683.215.669.506 1.299.812 1.929.219.458.458.95-.029 1.408-.697.014-1.084-.501-1.489-.926-1.289-1.356-2.76-2.487-4.192-3.681-1.246-1.04-2.659-1.441-4.244-1.503-3.375-.134-6.659.635-9.986.964-6.702.664-13.386 1.47-20.145 1.628-6.072.138-12.058-.363-18.04-1.227-.678-.095-1.685-.043-1.866-.687-.225-.783.85-.926 1.36-1.342.678-.549 1.427-1.012 2.005-1.924-1.265.984-2.391 1.857-3.442 2.822-.367.339-.74.592-1.227.525a230 230 0 0 0-7.466-.936c-.085-.009-.162-.086-.233-.143.343-.54.11-1.065-.053-1.594 1.146-1.156 2.377-2.23 3.428-3.481 2.477-2.964 3.627-6.458 4.028-10.234.11-1.017.363-2.015.382-3.041-.54 3.91-1.093 7.81-3.36 11.208-1.093 1.633-2.315 3.151-3.772 4.469-.243.219-.534.482-.859.386-.425-.124-.468-.573-.444-.935.058-.86-.19-1.557-.907-2.058a1.6 1.6 0 0 1-.238-.363c-.736-1.255-2.058-1.728-3.251-2.286-3.953-1.838-8.13-2.807-12.47-3.275-2.911-.315-5.732.029-8.577.449-1.137.167-2.182.501-2.698 1.69a.59.59 0 0 1-.572.324" fill="#5BB2F2"/><path d="m130.968 121.693.463-.248c2.496-.048 4.563 1.232 6.688 2.249 7.709 3.69 15.844 6.244 23.887 9.046 3.581 1.246 6.984 2.84 9.973 5.222 4.683 3.738 6.702 8.774 7.151 14.593.458 5.929-.349 11.772-1.003 17.639-.286 2.578-.339 5.189.492 7.748 1.27 3.914.859 7.833-.387 11.657-.573 1.757-1.866 2.96-3.79 3.294-.673-1.203-.239-2.258.434-3.284.205-.129.315-.33.406-.549.43-1.065.931-1.031 1.628.248-.115-3.299-.936-5.948-2.931-8.211-5.423-6.139-12.278-9.351-20.379-10.115-1.766-.167-3.509-.492-5.232.219-.468.196-.812-.124-1.079-.453-.907-1.122-1.795-2.263-2.592-3.466-.296-.444-.377-.945-.277-1.475.473-2.458.468-5.012 1.451-7.371.067-.167.148-.343-.047-.673-.917 1.518-1.199 3.127-1.404 4.76a4.4 4.4 0 0 1-.115.835c-.329.63.148 1.766-.668 1.924s-1.122-.931-1.609-1.509c-.802-.95-1.436-2.024-2.138-3.045-5.06-7.71-9.552-15.734-13.395-24.122-.764-1.67-.688-1.699.601-3.107 2.702-2.955 3.958-6.459 3.719-10.479-.024-.448-.282-.93.153-1.327" fill="#5BB2F1"/><path d="m75.288 47.64.515-.03c.458.478.143.955-.005 1.428-.506 1.609-1.565 2.835-2.759 3.972-.367.348-.778.673-1.103 1.284.683-.024 1.065-.406 1.447-.745 1.647-1.48 2.764-3.332 3.18-5.47.997-5.161 4.763-6.841 9.079-6.994.697-.024 1.403-.072 2.095.01 3.227.377 6.049-.583 8.665-2.416 3.136-2.196 6.659-2.449 10.311-1.848.496.082 1.112.115 1.26.707.158.63-.463.835-.854 1.131-.335.253-.683.497-.96.812-.258.296-.764.587-.458 1.031.277.396.773.157 1.165.029.792-.263 1.565-.597 2.367-.84 1.895-.573 3.38.057 4.602 1.494a22.5 22.5 0 0 1 2.626 3.78c.806 1.475 1.79 2.836 2.888 4.106.324.372.802.682.663 1.298l.215.611c-1.193.459-2.477-.09-3.68.334-.411.144-.95-.004-1.203.52.243.344.506.11.735.034 3.212-1.06 6.053.583 6.697 3.881.21 1.074.12 2.13-.181 3.175-.425 1.475-.96 2.916-1.165 4.454-.062.463-.215.973-.745 1.074-.596.114-.759-.45-.969-.836-.73-1.317-.83-2.826-1.241-4.244-.181-.634-.076-1.308-.525-1.933-.434-.597.291-.797.664-1.074.582-.157.983.081 1.269.568.086.162.124.344.148.53.048-.11-.004-.22-.024-.32-.291-1.537-1.322-2.243-2.783-2.463-.486-.072-1.26.081-1.327-.463-.081-.635.764-.645 1.218-.912.195-.114.444-.12.63-.305-1.079-.01-2.034.601-3.098.553-.368.005-.736.02-1.103-.014-1.279-.105-1.389-.349-.702-1.494.005-.673-.525-.807-.998-.988-.692-.263-1.427-.42-2.052-.836-.358-.238-.917-.372-.64-1.017.549-.286.969.153 1.59.282-1.37-1.031-2.592-2.034-3.872-2.97-2.315-1.699-4.878-2.405-7.733-2.214-1.308.086-2.44.592-3.518 1.227-2.487 1.47-4.268 3.642-5.776 6.057 1.408-1.317 2.773-2.677 4.138-4.038 3.605-3.585 7.863-4.015 12.135-1.208a25 25 0 0 1 2.339 1.757c.363.306.883.597.611 1.246-.453.229-.807-.057-1.174-.239-1.27-.63-2.63-.907-4.024-1.074 1.761.248 3.399.85 4.95 1.7.348.19.945.4.797.83-.2.573-.783.291-1.208.148-1.537-.53-3.04-1.093-4.726-1.103-1.957-.01-3.637.683-5.284 1.576-2.42 1.317-4.573 3.04-6.812 4.63-2.463 1.747-5.208 2.091-8.115 1.824-3.065-.282-5.705.501-7.614 3.107-1.098 1.5-2.12 3.075-3.71 4.144 1.561-.897 2.75-2.186 3.81-3.609.53-.716 1.122-1.37 1.8-1.943.43-.363.892-.725 1.489-.272.1.516-.196.902-.463 1.27-2.163 2.988-2.893 6.363-2.707 9.987a1 1 0 0 1-.095.4c-.13.201-.315.258-.54.23-.439-.258-.706-.73-1.16-.965-.544-.281-.491-.692-.262-1.207-1.232.802-2.148 1.966-3.547 2.253-.096.138-.062.186.057.22.454.138 1.155-.378 1.351.262.181.597-.492.912-.907 1.265-.444.382-.969.692-1.284 1.303 1.208-.272 2.206-.826 3.198-1.422.406-.244.764-.736 1.356-.416.234.702-.291 1.012-.726 1.347-.706.539-1.522.892-2.296 1.312-.415.23-.993.282-1.217 1.18 1.719-.55 3.37-.693 4.74-1.753.315-.243.73-.72 1.074-.348.401.434-.08.845-.415 1.16-.874.807-1.914 1.298-3.05 1.594.94-.176 1.747-.64 2.554-1.126.29-.177.63-.626.95-.215.32.415-.062.807-.397 1.05-.997.716-2.129 1.122-3.332 1.341-.32.058-.644.087-.964.125 1.003 0 1.933-.306 2.864-.64.263-.096.583-.191.745.115.153.286-.057.525-.263.725-1.026.988-2.358 1.26-3.675 1.547-.401.09-.84.014-1.399.444 1.556-.34 2.907-.525 4.2-.998.311-.114.655-.21.932.024.382.325-.015.582-.158.83-.267.468-.11.898.038 1.342.463 1.408 1.428 2.482 2.368 3.58.33.387 1.04.84.12 1.385-.812-.33-1.404-1.06-2.292-1.242-1.098-.224-2.191-.329-3.198.349-.301.2-.606.444-1.012.286-2.874-2.644-5.19-5.695-7.018-9.156-.926-1.756-1.265-3.49-.682-5.37 1.174-3.79 1.298-7.68 1.303-11.61 0-3.527.883-6.807 3.556-9.409 2-1.942 4.192-3.083 7.046-2.367.23.057.44 0 .65-.115" fill="#5CB2F1"/><path d="M174.261 192.726c2.248-.773 3.422-2.263 4.029-4.659 1.012-3.996.587-7.781-.421-11.672-.754-2.917-.167-5.91.172-8.869.64-5.629 1.265-11.252.473-16.933-.964-6.907-4.683-11.762-10.784-14.97-4.148-2.177-8.602-3.528-13.013-4.969-6.287-2.058-12.373-4.602-18.369-7.371-1.389-.64-2.726-1.442-4.344-1.351-.33.019-.506-.181-.568-.492.792-.959 1.766-.644 2.692-.329 3.313 1.117 6.445 2.678 9.648 4.058 6.039 2.601 12.335 4.463 18.507 6.692a47 47 0 0 1 6.607 2.993c7.223 3.958 10.684 10.211 11.242 18.274.363 5.285-.243 10.507-.926 15.725-.439 3.36-.387 6.649.463 9.967.778 3.041 1.065 6.158-.42 9.147-.043.081-.091.176-.086.262.272 3.943-2.592 5.098-5.523 6.125-.678.238-1.069.563-1.418 1.174-2.573 4.545-4.392 9.457-6.926 14.016-3.7 6.654-12.694 10.855-19.725 9.222-3.046-.706-5.538-2.372-7.738-4.52-1.032-1.008-2.015-2.067-3.017-3.098-.167-.086-.387-.125-.492-.258-1.552-2.005-3.59-1.303-5.609-1.136-4.373.358-8.96.854-12.913-1.213-4.177-2.181-8.292-1.924-12.593-1.403-3.647.439-7.323.573-10.97 1.012-6.082.73-11.992 2.167-17.82 3.995-8.177 2.564-16.379 5.037-24.933 6.025-1.084.124-2.186.573-3.29.047-4.415.282-8.835.43-13.222-.315-4.826-.821-9.309-2.415-12.479-6.42-2.496-3.151-3.203-6.884-2.936-10.789.473-6.96 2.77-13.438 5.519-19.777.554-1.275 1.088-2.554 1.632-3.833.864-2.841 3.433-2.507 5.5-2.736 7.47-.835 14.507.711 21.104 4.297.62.338 1.246.668 1.303 1.494-.448.42-.945.296-1.436.109a5.5 5.5 0 0 1-1.012-.477c-4.846-3.06-9.954-2.931-15.195-1.289-.711.225-1.418.468-2.172.521-.33.023-.716.014-.845-.339-.124-.339.138-.616.387-.831.687-.592 1.551-.84 2.372-1.17 1.618-.639 3.29-.983 4.244-.921-3.041-.339-6.874-.41-10.703.205-.787.129-1.35.492-1.723 1.242-3.399 6.883-6.225 13.977-7.218 21.648-.51 3.939-.229 7.824 2.143 11.276 1.662 2.42 4.087 3.766 6.698 4.845 3.408 1.408 7.013 1.948 10.66 1.981 10.015.091 19.734-1.824 29.262-4.75 6.373-1.957 12.741-3.89 19.31-5.108 2.702-.501 5.447-.625 8.168-.959 4.177-.516 8.363-.964 12.664-1.155-.568-.42-1.16-.597-1.623-.974-.257-.21-.51-.449-.31-.826.148-.282.434-.329.721-.329.53 0 .988.248 1.446.472 1.585.793 3.137 1.638 4.75 2.373 4.344 1.966 8.851 2.811 13.605 2.124.921-.134 1.867-.01 2.788-.196 1.189-.238 1.298-.448.568-1.427-2.616-3.494-4.592-7.342-6.292-11.342-.272-.645-.558-1.28-.744-1.958a1.3 1.3 0 0 1 .028-.677c-1.761-4.354-3.041-8.87-4.387-13.362-2.492-8.335-4.463-16.799-6.339-25.296-.912-4.134-2.234-8.163-3.752-12.125-.244-.64-.487-.807-1.199-.749-3.465.276-6.864-.039-10.167-1.237-6.407-2.32-9.81-7.065-11.128-13.548a16.2 16.2 0 0 1-.315-3.327c.005-1.594-.062-1.647-1.695-1.246-2.391.583-4.773 1.208-7.17 1.786-6.153 1.479-12.46 2.09-18.655 3.327-6.44 1.289-11.438 4.831-15.152 10.158-4.907 7.041-8.187 14.904-11.304 22.842-.239.607-.564 1.194-.702 1.819-.2.907-.673 1.251-1.6 1.408-1.65.277-2.696 2.731-1.956 4.22.272.545.692.373 1.074.363.95-.019 1.866.057 2.673.621.487.339.95.706.912 1.685-1.814-1.408-3.647-1.709-5.356-.42-1.762 1.327-3.222 2.95-3.514 5.437.95-.153 2.02-.434 1.05 1.065-.162.253.244.782-.061 1.174-.912.893-1.366.41-1.71-.544-.825-2.296-.042-4.354 1.414-5.958 1.513-1.666 2.892-3.065 2.439-5.633-.258-1.446 1.012-2.477 2.377-2.917.936-.3 1.289-.873 1.58-1.713 2.66-7.734 5.991-15.157 10.302-22.112 4.692-7.571 11.366-12.197 20.302-13.29 7.734-.945 15.314-2.673 22.895-4.42 2.42-.559 2.836-.182 2.974 2.31.248 4.325 1.217 8.44 4.287 11.691 4.535 4.802 10.301 6.01 16.627 5.351.596-.172 1.035.301 1.565.387.549.3.635.888.85 1.394 2.392 5.699 3.771 11.686 5.06 17.701 2.411 11.261 5.456 22.345 9.576 33.115 2.449 6.406 5.709 12.306 10.626 17.223 2.134 2.134 3.996 4.54 6.583 6.196 3.647 2.339 7.533 2.573 11.51 1.141 4.917-1.771 8.774-4.788 10.984-9.705 1.967-4.372 4.191-8.631 6.268-12.951 1.561-3.246 2.597-6.673 2.912-10.292.1-1.169-.535-1.924-1.241-2.683-4.535-4.85-10.197-7.542-16.67-8.664-1.561-.272-3.132-.472-4.697-.678-.669-.105-1.347-.501-1.977.091 0 .296.086.592-.033.878-.182.392-.449.659-.912.65-.821-.168-1.146-.917-1.604-1.461-2-2.368-3.852-4.85-5.528-7.457-.057-.816-.668-1.241-1.217-1.709-.353-.358-.707-.716-.726-1.265.215-.382.544-.644.917-.854 1.131 1.513 2.258 3.026 3.456 4.635.415-.687.005-1.418.444-1.938.153.038.353.2.434-.043.115-.353-.1-.582-.396-.74.1-1.69.559-3.294 1.265-4.826.162-.349.291-.907.869-.63.401.191.377.611.2.978-1.203 2.535-1.05 5.356-1.709 8.006-.105.425.043.735.263 1.036a282 282 0 0 0 2.678 3.575c.143.191.229.506.625.291 2.182-1.174 4.492-.52 6.684-.224 7.38.998 13.753 4.029 18.875 9.614 2.138 2.335 3.098 5.022 3.48 8.03.062.501.3 1.174-.435 1.441-.339.124-.501-.181-.759-1.317-.73.062-.229 1.265-1.093 1.188-.334-1.279.468-2.406.43-3.561a27 27 0 0 1-1.055 4.511c-.244.678-.597 1.356-.143 2.077" fill="#184AA4"/><path d="M140.133 160.628c-.024.525-.324.763-.826.797-.825-.005-1.012-.745-1.336-1.251a199 199 0 0 1-8.626-14.86c-2.01-3.829-3.967-7.691-5.447-11.787-1.06-2.931-.759-5.48.74-8.129 2.162-3.824 4.879-7.266 7.175-10.994.783-1.27 1.513-2.564 1.909-4.024.287-1.046.038-1.891-.697-2.688-2.425-2.63-5.413-4.544-8.263-6.64-.511-.377-1.131-.625-1.933-.511a37 37 0 0 0 4.143 2.988c.358.22.731.416.998.755.176.224.324.468.219.764-.138.377-.477.429-.806.41-.812-.052-1.523-.406-2.191-.84-1.566-1.017-3.036-2.163-4.497-3.313-.645-.511-1.303-1.084-2.459-.611 2.163 1.136 4.039 2.406 6.034 3.48.587.315 1.638.663 1.332 1.356-.358.806-1.322.205-1.976-.015-1.599-.539-2.984-1.518-4.459-2.315-.162-.091.034.034-.119-.071-2.497-1.786-4.974-2.43-7.318.281.945.182 2.005.344 3.045.592 2.559.602 5.008 1.48 7.108 3.117.478.373 1.289.821.807 1.537-.463.683-1.227.201-1.757-.124-1.436-.873-2.859-1.733-4.487-2.234-1.513-.468-2.993-1.007-4.301-.138 1.69.081 3.117 1.017 4.253 2.473.23.291.459.687.196 1.021-.281.358-.682.119-1.021-.024-.086-.038-.177-.071-.244-.133-2.449-2.258-5.466-2.063-8.459-1.948-2.1.076-2.855.831-2.993 2.883-.129 1.881.215 3.714.559 5.542.167.893.611 1.06 1.379.549 1.351-.902 1.394-1.771.105-2.84-.515-.43-.778-.845.024-1.255.267-.134.401-.373.463-.659.1-.444.124-1.007.73-1.031.511-.024.626.496.817.849.291.535.778.936.997 1.514.043.114.048.234.058.382.601-.798 1.284-1.275 2.253-.611.902.62 1.112 1.494.41 2.549-2.215 3.327-2.826 7.27-4.224 10.908-.874 2.262-.459 4.597.31 6.845.511 1.499.926 3.027 1.399 4.54.243.788.577 1.585.3 2.444-.649.158-1.131-.153-1.57-.578-.931-3.265-1.628-6.587-2.263-9.915-.372-1.962.148-3.89.731-5.761.663-2.125 1.379-4.23 2.086-6.388-.306-.014-.387.196-.487.358-1.256 1.986-3.776 2.091-4.53-.086-1.242-3.58-1.881-7.341-.082-11.194h-7.938c-2.148 0-4.278-.191-6.397-.52-1.031-.158-2.01-.487-2.783-1.194-.291-.267-1.399-.525-.272-1.236.196-.124-.205-.544-.392-.773-.75-.945-1.527-1.867-2.492-2.74.435 1.303.836 2.616 1.304 3.909 2.22 6.182 4.134 12.45 5.27 18.933.138.783.597 2.114-.124 2.253-1.027.2-.845-1.208-.993-1.91-1.714-8.029-4.244-15.805-7.041-23.51-.296-.816-.564-1.25-1.547-.974-2.043.578-3.867.005-5.452-1.346-1.985-1.69-3.441-3.776-4.458-6.168-.769-1.814-.65-3.613.19-5.384-.114-.268.03-.306.244-.277 2.368-1.776 4.42-1.618 6.488.496.764 1.022.759 1.208-.024 1.542-.745-.315-1.227-.988-1.933-1.365-1.838-.988-3.633-.034-3.79 2.067-.101 1.303.39 2.477.978 3.6.83 1.589 1.976 2.94 3.346 4.085 1.738 1.457 3.39 1.562 5.26.378 1.209-.764 1.543-.702 2.273.625 1.25 2.268 2.712 4.344 4.84 5.886a8.7 8.7 0 0 0 3.28 1.489c3.953.888 7.977.588 11.972.693.44.009.783-.244 1.156-.449 3.322-1.852 6.788-3.399 10.249-4.965 1.628-.74 3.174-1.389 5.036-1.37 1.26.01 3.041-2.993 3.117-4.769.067-1.513-.386-2.95-.63-4.42-.959-5.79-1.532-11.639-2.826-17.372-.081-.367-.134-.735.014-1.098.592-.534.893.024 1.218.358.296.306.291.783.52 1.136.468.635.201 1.528.764 2.125.348-.048.673-.224 1.036-.148 1.456-.34 2.511.262 3.064 1.556 1.418 3.308 1.342 6.702.306 10.092-.234.759-.721 1.546-1.532 1.7-1.127.21-1.032.81-.812 1.603.1.358.086.745.186 1.103.96 3.38.416 6.354-2.73 8.898 1.9-.563 3.236-.134 4.473.716 2.998 2.053 5.895 4.229 8.473 6.817 1.418 1.427 1.718 2.969 1.017 4.84-1.008 2.702-2.645 5.017-4.378 7.266-.845 1.098-1.255 1.995.091 2.94.773 4.946-.549 9.195-4.292 12.574-.677.616-.343 1.079-.114 1.576.964 2.114 1.9 4.243 2.979 6.296 3.179 6.044 6.42 12.049 10.211 17.744.157.215.257.477.386.726" fill="#17489D"/><path d="M46.192 218.217c9.9-1.012 19.41-3.685 28.852-6.692 7.409-2.359 14.999-3.886 22.8-4.301 3.57-.191 7.126-.645 10.688-.984 1.503-.143 2.94-.1 4.32.697 4.921 2.84 10.32 2.778 15.748 2.454.511-.029 1.06.005 1.518-.177 2.225-.892 3.552.277 4.693 1.938-3.762.201-7.524.468-11.29.578-4.506.134-8.908-.349-13.037-2.425-1.738-.874-3.58-.115-5.351.119-13.433 1.767-26.427 5.337-39.26 9.581-3.813 1.26-7.714 2.153-11.776 1.972-1.91-.086-3.795-.349-5.604-1.022-.965-.353-1.743-.888-2.301-1.738" fill="#5AB3F2"/><path d="M.002 29.356c.195-7.118 3.14-13.147 7.59-18.498 3.57-4.301 7.881-7.69 13.376-9.204C32.682-1.568 43.132 6.5 41.848 19.77c-.377 3.877-1.67 7.543-2.912 11.2-3.37 9.92-3.208 19.748.53 29.534.53 1.39.983 2.822 1.284 4.277.84 4.048-3.442 8.846-7.59 8.57-1.676-.115-2.66-1.242-3.442-2.555-1.088-1.828-1.523-3.886-1.99-5.933a4862 4862 0 0 0-4.206-18.38c-.272-1.183-.874-2.252-1.346-3.365-.559-1.312-1.385-1.408-2.521-.787a70 70 0 0 1-3.475 1.79c-4.115 1.957-7.175 1.442-10.435-1.723C2.064 38.832-.07 34.588.002 29.356" fill="#1A4C9F"/><path d="M120.008 50.375c-1.69-1.748-3.079-3.715-4.235-5.853-.329-.611-.73-1.189-1.126-1.762-2.172-3.155-3.514-3.537-7.07-2.124-.802.32-1.914 1.117-2.478.053-.472-.903.812-1.385 1.356-2.024.387-.45 1.117-.463 1.485-1.199-3.141-.759-6.187-.954-9.17.354a19.6 19.6 0 0 0-3.17 1.756c-2.12 1.452-4.397 2.11-6.98 1.9-1.756-.143-3.527-.157-5.284.21-3.255.683-5.48 2.406-6.22 5.781-.516 2.363-1.494 4.502-3.303 6.177-.406.378-.87.702-1.323 1.022-.362.253-.864.425-1.155.09-.41-.472.2-.725.458-.973 1.633-1.547 3.223-3.113 3.862-5.366.077-.262.096-.54.144-.811 1.188-4.612 4.133-7.027 8.97-7.113-1.543-1.046-4.307-.745-6.493.587-2.005 1.222-3.055 3.284-4.583 5.313-.372-1.231.029-1.995.454-2.73 2.215-3.8 6.067-5.5 10.488-4.64.591.114 1.203.229 1.751.463 3.208 1.38 6.11.892 8.946-1.117 3.762-2.669 7.963-3.194 12.393-2.01.401.11.797.253 1.179.425.458.21.883.592 1.394.12.468-.435.272-.965.157-1.443-.424-1.78-2.477-3.289-4.768-3.513-2.516-.248-4.913.224-7.237 1.18-.459.185-.874.534-1.447.434 2.85-2.998 9.586-3.48 12.722-.922.964.788 1.728 1.738 1.809 3.027.043.673.349.744.888.682 6.254-.682 9.595 5.571 8.746 10.894q-.06.343-.182.673c-.525 1.432-.367 1.67 1.198 1.8.86.071 1.652-.206 2.454-.468.325-.11.74-.396.931.162.153.454-.201.702-.53.864-1.37.673-2.797.459-4.225.239-.272-.024-.539-.086-.806-.139" fill="#1849A1"/><path d="M167.477 59.84c3.122-1.073 6.005-1.37 8.956-.758 5.776 1.203 8.788 6.793 6.344 11.767-.115.239-.158.563-.692.568.243-1.37.381-2.73.362-4.1-.057-3.605-1.79-6.001-5.222-7.08-3.618-1.136-7.17-.874-10.621.692-.368.167-.836.592-1.137.243-.429-.5.244-.792.502-1.097 1.814-2.168 1.857-4.35.114-5.953-.453-.416-.644-.435-1.04.11-2.048 2.83-4.163 3.35-7.352 1.785-.864-.425-1.184-.057-1.47.635-.072.172-.105.382-.225.506-.343.348.11 1.427-.73 1.14-.611-.205-.353-1.04-.11-1.617.019-.043.029-.096.057-.125 1.786-1.77.397-3.327-.338-4.916-.444-.97-1.175-1.056-2.091-.66-2.845 1.237-3.533 4.335-1.461 6.655.114.13.191.296.325.511-.912.32-1.385-.2-1.814-.735-1.533-1.9-.922-4.803 1.346-6.492 2.329-1.733 3.718-1.375 4.893 1.255.133.296.286.587.391.898.291.83.621 1.007 1.509.51 1.976-1.112 4.119-1.78 6.435-1.27.687.153.878-.123 1.045-.715 1.06-3.743-1.308-6.922-5.189-6.913-.325 0-.654.024-.979.043-2.596.163-2.744.077-3.857-2.21a9.5 9.5 0 0 0-.763-1.332c-1.814-2.516-4.22-2.869-6.593-.916-1.465 1.203-2.726 2.573-2.664 4.673.01.282-.052.597-.405.602-.268.004-.335-.287-.421-.497-.391-.945-.176-1.838.301-2.678.941-1.67 2.282-2.95 4.01-3.767 2.616-1.24 5.843.153 7.194 3.247 1.022 2.348 1.088 2.143 3.432 2.014 5.161-.286 7.949 3.165 6.65 8.158-.086.325-.463.683-.005 1.003 2.54 1.747 2.697 4.024 1.313 6.817" fill="#1B4B92"/><path d="M3.606 89.266c-.664-4.616 3.074-8.645 7.318-8.287.601.052 1.203.11 1.804.129 2.621.08 4.63 1.24 6.053 3.427 2.201 3.375 2.736 7.084 2.067 10.984-.424 2.473-1.064 4.912-1.532 7.38-.597 3.156-.363 6.249 1.313 9.051.501.836-.034 1.537-.253 1.867-.478.702-1.127.205-1.48-.454a15.3 15.3 0 0 1-1.8-6.11c-.224-2.788.435-5.452.998-8.14.792-3.77 1.26-7.542-.239-11.265-.61-1.523-1.394-2.931-2.582-4.105-3.003-2.965-7.347-2.487-9.696 1.055-.85 1.284-1.131 2.82-1.971 4.468" fill="#164CA6"/><path d="M12.867 103.849c-1.418.993-2.936 1.318-4.545 1.132-2.014-.234-3.432-1.394-3.995-3.246-1.365-4.492-.936-8.813 2.196-12.484 3.356-3.938 7.256-3.064 8.893 1.848 1.194 3.58 1.532 9.581.654 12.149-.85-.439-.873-1.284-.964-2.01-.3-2.349-.501-4.716-.783-7.07-.186-1.585-.692-3.079-1.384-4.516-.502-1.04-1.098-1.312-2.192-.668-3.876 2.291-5.609 9.223-3.207 13.042.997 1.589 2.396 2.272 4.258 1.995.353-.052.71-.114 1.069-.172" fill="#184BA4"/><path d="M70.466 85.657q-.122.134-.243.277c-1.915-1.27-3.547-2.86-5.667-3.93-3.189-1.608-4.062-4.687-3.69-8.09.11-1.003-.076-1.743-.682-2.554-1.929-2.573-2.01-6.364-.053-8.655-.167 1.666-.425 3.055-.306 4.449.12 1.413.65 2.673 1.523 4.115.22-.726.392-1.222.516-1.733.162-.659.153-1.341.96-1.714.477-.224.353-.912.424-1.413.33-2.415.048-4.836.077-7.251.057-4.463 1.413-8.387 5.317-10.937 2.034-1.327 4.282-2.133 6.645-.587-.033.358.043.86-.572.65-3.943-1.332-6.206 1.074-8.283 3.77-1.441 1.872-1.986 4.15-1.971 6.43.024 4.531-.2 9-1.518 13.372-.788 2.602.802 4.559 1.98 6.573 1.294 2.21 2.836 4.254 4.794 5.944.382.334.763.701.75 1.284" fill="#1A4AA3"/><path d="M160.517 81.709c.277-1.131.811-2.158.601-3.29-.1-.543-.191-1.236-.763-1.37-.464-.104-.683.545-.936.908-2 2.888-1.585 6.249 1.069 8.855 1.685 1.657 3.757 2.73 5.8 3.852 2.144 1.175 2.201 1.561.54 3.394-.922 1.017-1.857 2.024-2.774 3.017-.014-.01.048.072.119.072.95.02 2.082-.396 2.707.597.606.96-.277 1.757-.682 2.549-.917 1.78-1.891 3.528-2.86 5.28-.191.343-.325.954-.831.74-.582-.244-.219-.793-.095-1.213.053-.177.119-.358.215-.516.577-.94.797-1.68-.339-2.539-1.112-.845-1.046-2.43-.167-3.977.959-1.68 2.368-2.983 3.68-4.372 1.385-1.47 1.366-1.566-.429-2.554-1.757-.965-3.523-1.91-5.065-3.213-3.041-2.573-4.034-5.676-2.798-8.64.492-1.184 1.647-2 2.077-3.094.425-1.078-.573-2.363-.401-3.647.31-2.33 1.556-4.053 3.427-5.36.755-.53 1.595-.846 2.449-.172.817.64.631 1.518.401 2.32-.596 2.1-1.761 3.924-3.222 5.499-.807.869-1.06 1.46-.434 2.597.916 1.675.277 3.551-1.289 4.277" fill="#194E99"/><path d="M122.805 74.167c-.349.186-.697.377-1.046.563-.582-.773-.424-1.743-.687-2.597-.005-.01-.091 0-.134.014s-.081.043-.124.067c-.549-.487-.501-1.456-1.37-1.68-.52-.2-.582-.683-.682-1.132-.812-3.761-1.733-7.485-3.414-10.974-.124-.253-.133-.535-.105-.817.802-1.374 2.521-1.895 3.414-1.04-.196.262-.392.52-.569.759.249-.029.588-.072.721-.086-.09 2.582.425 4.907 1.915 7.06.3-3.103 2.339-5.814 1.58-9.146-.659-2.874-4.406-3.92-6.201-2.903-.411.234-.783.568-1.251.248-.253-.171-.181-.515-.129-.782.11-.607.683-.611 1.093-.678 1.461-.23 2.936-.454 4.411-.048 2.525 1.25 3.867 4.191 3.323 7.414a18.5 18.5 0 0 1-.731 2.969c-.859 2.525-.95 5.065-.515 7.68.281 1.681.339 3.404.501 5.108" fill="#174AA9"/><path d="M139.618 24.353c.573-1.35 1.165-2.497 2.081-3.447 2.287-2.362 4.645-2.405 6.87.005.73.793.954.812 1.417-.21.793-1.756 1.428-3.537 1.685-5.447.435-3.26-.572-4.955-3.647-6.205-.243-.1-.573-.077-.649-.435 2.669-.54 5.361 2.344 5.299 5.227a15.1 15.1 0 0 1-1.976 7.2c-.645 1.135-.702 1.851.773 2.224-.32.663-.783.654-1.117.281-.793-.873-1.117-.205-1.547.358-1.862 2.459-4.821 3.671-7.203 2.621-1.265-.558-1.857-.377-2.631.64-.697.921-1.852 1.227-2.978 1.375-4.912.649-9.92-2.84-11.037-7.677a4.7 4.7 0 0 1-.134-.964c-.009-.405-.138-1.021.353-1.079.635-.076.401.583.449.946.649 4.62 4.931 8.234 9.595 8.081 1.724-.057 3.791-1.255 4.02-2.334.114-.525-2.144-2.382-3.308-2.72q-2.406-.705-3.667 1.641c-.124.234-.162.592-.553.43-.287-.12-.358-.425-.344-.707.038-.787.582-1.274 1.165-1.647 1.575-1.002 3.193-.816 4.778.005.845.43 1.523 1.074 2.306 1.838" fill="#204F93"/><path d="M173.969 70.224c.368-1.18.344-2.101-.181-2.989-.143-.243-.334-.534-.048-.74.382-.272.626.096.759.358.549 1.07.75 2.215.416 3.38-.239.835.095 1.189.816 1.456 1.675.625 3.079.167 4.048-1.39-.31-.372-.769-.233-1.155-.329-1.194-.29-1.962-1.045-2.349-2.172-.477-1.384.038-2.678 1.222-3.188 1.265-.545 2.783.052 3.418 1.346.745 1.523.177 4.124-1.341 5.666-1.227 1.25-2.798 1.27-4.287.683-.888-.349-1.265-.191-1.79.53-1.714 2.348-3.771 2.262-5.318-.2-1.141-1.82-1.561-3.891-1.7-5.982-.114-1.724 1.342-2.478 2.86-1.595 1.613.94 2.688 2.411 3.733 3.905.258.368.52.73.897 1.26" fill="#1C4F94"/><path d="M158.23 56.838c-1.117 3.05-2.382 5.752-6.162 5.929.114-.625 1.05-.349 1.121-1.131-3.575-1.246-6.931-.611-9.767 1.718-5.57 4.588-4.406 9.968-1.231 15.448-5.036-4.64-4.65-11.257-.578-15.204 2.564-2.483 5.724-3.6 9.309-3.375.64.038 1.294.214 1.886.453 1.713.688 2.043.63 3.083-.955.406-.62.697-1.317 1.074-1.957.253-.415.401-.979 1.265-.926" fill="#1D4C93"/><path d="M62.356 17.092c.615.821 1.499 1.036 2.272 1.428 1.68.854 3.222 1.885 4.253 3.508 1.084 1.71.778 3.418-.806 4.373-.082-.606.262-1.06.381-1.552.454-1.938-.744-3.389-2.711-3.26-.09.005-.186.024-.277.014-.434-.028-1.107.215-1.16-.4-.048-.569.625-.359.998-.45.176-.042.348-.1.61-.176-.18-.735-.825-.86-1.307-1.136-.807-.463-1.647-.869-2.44-1.346-.477-.291-.983-.688-.787-1.337.19-.62.773-.745 1.365-.74.606 0 1.213.024 1.814-.014 2.826-.186 4.74-1.967 4.84-4.45.053-1.264-.367-2.29-1.47-2.959-1.126-.678-2.239-.444-3.303.177-.277.162-.506.406-.764.601-.239.182-.444.635-.787.353-.382-.31-.082-.668.143-.973 1.293-1.752 4.392-1.905 5.986-.296 1.6 1.613 1.604 4.344-.024 6.23-1.485 1.723-3.428 2.305-5.633 2.21-.344-.02-.72-.158-1.193.195" fill="#205099"/><path d="M33.804 81.241c.053-2.864 2.459-5.451 5.003-5.38 2.014.057 3.843 2.11 3.78 4.249-.076 2.635-2.505 4.998-5.083 4.94-2.315-.052-3.743-1.522-3.7-3.809" fill="#1B4C9D"/><path d="M142.134.079c5.795-.525 10.611 1.59 14.469 5.824 3.484 3.823 5.184 8.277 3.809 13.605-.458-11.868-6.908-17.95-18.278-19.43" fill="#1E4E99"/><path d="M141.671 30.253c4.053.831 8.062 1.137 12.101.87 1.676-.11 3.346-.335 4.764-1.357 1.532-1.102 1.58-1.938.091-3.021-.898-.654-1.9-1.165-2.874-1.7-.635-.348-1.303-.506-1.971-.028-.201.143-.454.214-.592-.053-.125-.243.076-.434.253-.582.596-.502 1.279-.545 1.971-.306 1.728.606 3.299 1.49 4.607 2.793.892.888.826 1.823.052 2.726-.95 1.107-2.243 1.675-3.623 1.947-4.444.874-8.884.611-13.29-.305-.525-.11-1.217-.143-1.489-.984" fill="#1F5092"/><path d="M148.769 66.405c1.103.08 2.325.41 2.964 1.675.616 1.217.206 2.353-.553 3.39-1.175 1.603-2.721 2.677-4.669 3.088-1.857.391-3.127-.697-3.103-2.564.038-2.983 2.444-5.599 5.361-5.59" fill="#1F4F96"/><path d="M125.101 12.428c-.2-1.265.143-2.281.587-3.222 1.895-4.02 4.917-6.807 9.194-8.168.306-.095.63-.167.955-.195.74-.067 1.532-.206 2.053.506.53.73.124 1.432-.215 2.086-.645 1.246-1.127 2.597-2.248 3.962-.048-1.59.782-2.501 1.14-3.566.225-.673.998-1.456.454-2.005-.549-.558-1.499-.11-2.239.162-4.115 1.528-6.898 4.42-8.593 8.426-.281.65-.386 1.408-1.088 2.014" fill="#1E5291"/><path d="M20.953 120.681c-1.742.019-2.72-.663-2.73-1.904-.01-1.614 2.086-3.514 3.928-3.562.974-.023 1.934 1.151 1.924 2.359-.01 1.699-1.403 3.083-3.122 3.107" fill="#1A4DA5"/><path d="M54.002 31.8c-1.69.01-3.103-1.303-3.132-2.912-.029-1.652 1.68-3.265 3.509-3.299 1.742-.033 3.174 1.227 3.193 2.817.024 1.771-1.68 3.385-3.57 3.394" fill="#1E4F98"/><path d="M168.489 85.762c-1.843-.01-3.232-1.079-3.475-2.516-.239-1.418.754-2.907 2.286-3.423q.2-.064.406-.1c1.537-.286 3.022-.215 4.115 1.06.688.802.74 1.823.234 2.76-.797 1.474-2.129 2.138-3.566 2.219" fill="#1B4C95"/><path d="M71.574 40.884c.076-1.078.487-2.076 1.112-2.95 1.795-2.51 4.23-4.014 7.304-4.44.463-.061 1.036-.195 1.14.435.11.64-.524.506-.887.582-3.743.788-6.411 2.855-7.786 6.483-.11.287-.158.707-.602.616-.362-.076-.234-.444-.281-.726" fill="#1C4D96"/><path d="M97.896 109.411c-.105.649-.387 1.36.658 1.527.082.015.196.32.182.33-.76.539-.172 1.852-1.408 2.196-1.542.434-3.017 1.107-4.597 1.532 1.384-1.59 3.637-1.929 5.28-3.614-1.944-.062-3.342.702-4.808 1.227-.305.11-.592.291-.902.358-.363.076-.86.492-1.079-.081-.167-.449.363-.578.678-.726 1.59-.754 3.184-1.494 4.778-2.239.382-.214.645-.725 1.218-.51" fill="#1D4D98"/><path d="M154.077 72.08c.124 3.643-2.425 5.882-4.711 8.44h4.902c-1.04 1.017-4.664 1.337-5.785.573-.535-.363-.444-.745-.048-1.145.687-.697 1.375-1.39 2.057-2.091 1.633-1.652 2.702-3.643 3.585-5.777" fill="#215093"/><path d="M132.973 14.176c-.821-.678-.688-1.337-.544-1.953.444-1.948 2.73-4.01 4.706-4.287 2.215-.305 3.943 1.466 3.676 3.924-.071.64.267 1.881-.625 1.853-.764-.024-.234-1.16-.277-1.781-.076-1.194-.119-2.396-1.384-2.95s-2.359.033-3.332.807c-1.337 1.055-2.029 2.487-2.22 4.387" fill="#1E5196"/><path d="M13.989 105.062c.51 4.124 1.99 7.685 4.196 11.084-2.769-.396-5.652-8.015-4.196-11.084" fill="#21509E"/><path d="M179.468 83.81c.673-1.213 1.347-2.125 1.471-3.261.172-1.642-.368-2.139-1.967-1.819-.048.01-.091.029-.134.034-.477.062-1.179.477-1.346-.148-.181-.678.721-.487 1.098-.76.134-.095.296-.152.449-.229-.196-.577-.707-.515-1.036-.73-.244-.157-.463-.348-.334-.673.1-.253.358-.263.592-.258 1.379.005 3.212 1.652 3.537 3.184.415 1.957-.415 3.82-2.33 4.66" fill="#22539F"/><path d="m97.896 109.411-1.217.515c-.096-.778-.578-.21-.788-.162-1.59.339-3.16.764-4.745 1.112-.487.11-1.012.096-1.513.086-.139-.005-.363-.181-.387-.315-.024-.119.138-.387.258-.415 2.172-.492 4.139-1.638 6.354-1.981.057-.01.133.086.205.133-.115.487-.692.344-.94.688.95.067 1.966-.621 2.773.339" fill="#28539E"/><path d="M156.784 16.21c-.133-1.256-.224-2.521-.406-3.772-.272-1.876-.83-3.623-2.506-4.783-.234-.163-.654-.392-.358-.75.234-.281.602-.105.893.067.563.339 1.074.76 1.432 1.303 1.499 2.277 1.952 4.774 1.432 7.442-.043.215-.067.473-.487.492" fill="#27569A"/><path d="M170.432 118.084c.821 1.843.401 3.304-1.017 4.306-.63.449-1.504.587-1.69 1.652-.095.559-.859.568-1.518.153.253-.396 1.055-.411.84-1.132-.095-.324.144-.634.506-.72 1.934-.454 2.531-1.824 2.54-3.628.014-.153.167-.306.339-.631" fill="#2B5992"/><path d="M111.343 33.094c-.186-.406.153-.587.363-.802 1.418-1.437 5.027-1.662 6.497-.416.167.144.42.268.349.54-.077.286-.339.315-.564.21-2.239-1.046-4.349-.592-6.406.535-.048.028-.153-.043-.239-.067" fill="#2B589C"/><path d="M62.513 62.018c-.052 1.011-.09 2.028-.176 3.036-.024.257-.187.558-.497.596-.382.048-.444-.33-.477-.553-.277-1.89-.263-3.776.367-5.61.072-.21.163-.491.43-.472.396.029.315.386.32.64.014.787.005 1.57.005 2.358q.007-.001.028.005" fill="#1B4999"/><path d="M164.408 112.199c1.241-.053 1.885-.755 2.105-1.943.076-.406-.091-1.127.611-.984.654.129.482.807.396 1.294-.286 1.652-1.986 2.94-3.246 2.487-.358-.129-.792-.334-.745-.711.091-.683.564-.115.879-.143" fill="#285791"/><path d="M98.789 123.116c1.021.792.2 1.757.176 2.625-.01.325-.62.717-.95.206-.253-.396-.482-.764-.868-1.036-.492-.344-.23-.583.124-.836.1-.071.778-.171.085-.444.24-.835.75-.902 1.433-.515" fill="#3564B0"/><path d="M89.59 109.415c-.11-.076-.306-.138-.382-.272-.158-.267.062-.434.267-.534a145 145 0 0 1 3.37-1.647c.301-.143.64-.115.87.21.142.205 0 .396-.135.477-1.222.769-2.515 1.38-3.99 1.766" fill="#214C97"/><path d="M37.528 104.494c.334.635 1.074.344 1.322.964-.754.473-1.49.205-2.062-.162-.754-.482-.511-1.084.167-1.509a2.1 2.1 0 0 1 .764-.296c.425-.071 1.055-.405 1.212.158.148.544-.577.391-.902.568-.158.086-.315.177-.501.277" fill="#375F94"/><path d="M91.232 18.066c.382.979 1.48.688 2.014 1.485-.74.21-1.341.167-1.928-.11q-1.01-.48-.788-1.59c.115-.582.444-.921 1.045-.888.296.015.75-.028.74.42-.01.655-.701.44-1.083.683" fill="#2A5991"/><path d="M61.105 34.755c.12-1.074.22-2.124.21-3.189-.005-.353.148-.678.553-.654.42.024.473.41.473.735.005 1.18-.229 2.282-1.236 3.108" fill="#39659D"/><path d="M97.867 114.943c-1.136 1.003-2.568 1.518-3.9 2.196-.12.062-.372.005-.487-.09-.167-.139-.1-.358.081-.449 1.366-.692 2.74-1.375 4.11-2.058z" fill="#2C5794"/><path d="m99.018 120.061-.058.468c-.883.969-2.181 1.136-3.284 1.68-.372.129-.921.377-1.007-.129-.1-.568.678-.587 1.017-.916.983-.755 1.99-1.433 3.332-1.103" fill="#285394"/><path d="M191.379 51.654c.038.262-.086.444-.31.549-.234.11-.626-.015-.564-.153.406-.95-1.37-.869-.825-1.804.2-.344.558-.473.964-.354.52.158.802.435.506 1.017-.162.306.172.492.229.745" fill="#4E78A8"/><path d="M99.065 121.116c.272.301.11.563-.062.83-.888.74-1.91 1.036-3.05.931-.072-.1-.143-.195-.215-.296.85-1.079 1.933-1.628 3.327-1.465" fill="#21519D"/><path d="M97.896 116.734c-.172.501-.563.825-1.04 1.026-.368.153-.755.425-1.185.148-.195-.124-.186-.31-.047-.468.51-.587 1.174-.897 1.919-1.036.195-.038.358.062.353.33" fill="#2D5DA0"/><path d="M99.017 120.061c-1.198.105-2.176.878-3.332 1.107.081-.382-.176-.83.23-1.15.897.028 1.618-.807 2.568-.53.176.191.358.382.534.573" fill="#C3D8E9"/><path d="M66.146 32.096c.052.454-.248.525-.525.492-.716-.091-1.346-.44-1.71-1.041-.166-.272.278-.43.55-.391.692.095 1.408.176 1.685.94" fill="#396699"/><path d="M98.483 119.488c-.84.253-1.57 1.041-2.568.53.687-.373 1.35-.788 2.062-1.103.558-.243.778-.009.506.573" fill="#2C528F"/><path d="M95.948 122.872c1.012-.334 1.976-.806 3.05-.93v.649c-.945.157-1.694.94-2.716.84q-.164-.279-.334-.559" fill="#B5CEE5"/><path d="M99.065 121.116c-1.279.1-2.286.826-3.332 1.465l-.057-.367c.835-1.065 2.172-1.16 3.284-1.681q.057.288.105.583" fill="#91AFDA"/><path d="M142.563 11.288c.669.587.253 1.083.015 1.55-.191.369-.535.875-.936.636-.516-.31.048-.697.215-1.022.205-.391.458-.759.706-1.165" fill="#2E6090"/><path d="M96.282 123.436c.903-.287 1.666-1.031 2.717-.84.009.205.042.424-.215.525-.554-.048-1.036.114-1.428.515-.391.115-.787.253-1.074-.2" fill="#1F4E9C"/><path d="M123.354 192.502c1.976 5.05 4.248 9.938 7.719 14.168.892 1.088-.038 1.098-.712 1.212-7.16 1.189-14.006.44-20.378-3.293-1.122-.659-2.215-1.509-4.058-1.566 1.127 1.093 2.401 1.274 3.299 2.243-2.755.196-5.409.377-8.063.573-11.643.855-22.914 3.394-34.017 6.994-9.3 3.017-18.9 4.678-28.729 4.458-4.845-.11-9.552-.974-13.748-3.628-4.02-2.539-5.714-6.368-5.905-10.965-.215-5.27 1.275-10.23 2.94-15.137 1.261-3.709 2.832-7.29 4.57-10.803.257-.52.481-.983 1.14-1.079 4.397-.659 8.789-.955 13.185.201-3.07.315-6.105.72-8.941 2.902 1.499.019 2.506-.487 3.552-.778 3.355-.945 6.73-1.466 10.2-.688 1.614.363 3.018 1.208 4.47 1.943.858.435 1.67 1.06 2.73.888l.043.277c.64 1.695-.144 3.194-.755 4.669-.305.735-.974.439-1.546.105-2.836-1.652-5.886-2.74-9.104-3.37 2.75.582 5.414 1.427 7.896 2.768.348.186.94.272.888.755-.067.611-.688.725-1.189.744-1.952.077-3.9.105-5.828.535-2.034.453-4.087.802-6.058 1.504 3.112-.483 6.172-1.208 9.323-1.452 4.568-.353 9.108-.353 13.633.43 3.9.673 7.786 1.48 11.739 1.752 4.497.31 8.984.473 13.519.22 5.719-.325 11.41-.879 17.095-1.495 2.592-.281 5.184-.582 7.757-1.007 3.475-.568 6.449.32 8.865 2.936 1.255 1.346 2.682 2.43 4.468 2.984" fill="#FEFEFE"/><path d="M45.2 156.584c4.458 2.602 8.324 5.719 9.723 11.07a370 370 0 0 1-1.055-7.318c-.75-5.68-1.241-11.371-.936-17.109.03-.496-.033-1.069.506-1.35.53-.277.554.539 1.012.539.058-.649.105-1.289.172-1.929.005-.062.12-.119.301-.286.797 1.112.597 2.42.702 3.575a545 545 0 0 0 2.53 22.279c.64 4.774.143 9.361-2.015 13.72-.043.081-.071.176-.129.248-.4.468-.577 1.595-1.174 1.313-.764-.358.105-1.089.272-1.642.32-1.084 1.318-2.201-.29-3.094.367-.973-.55-1.002-1.013-1.336-1.843-1.342-2.936-3.547-5.213-4.411 1.609.11 2.87 1.074 4.56 1.489-.984-1.15-2.101-1.671-3.285-2.119-2.611-.979-5.232-1.948-7.71-3.251-.735-.387-1.46-.802-1.952-2.034 3.437 2.029 6.812 3.313 10.42 4.731-.605-1.141-1.856-1.361-2.271-2.688 1.995 1.308 3.675 2.607 5.761 3.223-.835-.998-2.286-1.323-2.826-2.721l2.464 1.503c-.53-1.055-1.68-1.255-2.53-2.157 1.16.066 1.856.969 2.921 1.036-1.384-5.094-5.251-8.116-8.946-11.281" fill="#1749AC"/><path d="M123.354 192.502c-1.375.148-2.525-.416-3.342-1.409-3.36-4.091-7.532-4.645-12.559-3.823a180 180 0 0 1-25.854 2.334c-6.636.119-13.214-.449-19.716-1.752-7.948-1.594-15.83-1.251-23.692.554-1.58.362-1.58.362-2.873-.12 4.855-1.933 9.662-2.549 14.937-2.697-3.395-1.943-6.727-2.854-10.006-4.062.597.052 1.203.052 1.79.167 3.031.606 5.957 1.504 8.554 3.251.669.448.993.625 1.27-.435.358-1.355.592-2.721.807-4.095 1.952.305.616 1.985 1.18 2.926 5.527-4.339 7.217-10.445 8.033-16.995.239 3.776-.3 7.371-1.752 10.822-1.193 2.831-3.375 4.879-5.494 6.975-.148.148-.42.176-.63.262-.42.368-.215.745-.01 1.122 2.616.334 5.256.497 7.848 1.036.41.086.62-.148.921-.42a40 40 0 0 1 4.33-3.48c-.472 2.086-2.239 2.979-3.962 4.105 3.666.688 7.232 1.222 10.812 1.437 8.984.544 17.92-.21 26.848-1.246 3.919-.453 7.805-1.26 11.771-1.279 2.039-.01 3.767.563 5.385 1.886 1.805 1.475 3.432 3.131 5.204 4.635q.093.157.2.301" fill="#1648A5"/><path d="M27.938 171.679c9.623-2.635 18.135.2 26.183 5.294-8.34-3.69-16.741-7.07-26.184-5.294" fill="#1746A7"/><path d="M64.785 180.305c.635 2.148-1.632 5.523-3.613 5.68-.234.02-.492.039-.63-.181-.144-.229-.048-.482.186-.587 2.167-.95 3.222-2.831 4.057-4.912" fill="#134FAA"/><path d="M68.624 184.429c-.888 1.198-1.953 2.082-3.547 1.957.902-1.155 2.12-1.732 3.547-1.957" fill="#0D4CAB"/><path d="M53.987 185.532c-.4-.024-.845.072-.83-.602.019-.677.41-.591.84-.515.358.32.998.229 1.212.936q-.607.087-1.222.181" fill="#B6E1FA"/><path d="M69.068 185.718c-.44.826-.993 1.036-1.872 1.232.463-.836.95-1.141 1.872-1.232" fill="#1358B1"/><path d="M145.976 163.191c1.117-.764 1.242-.081 1.175 1.003 3.026-3.165 5.814-6.02 5.623-10.498-.019-.453-.325-1.279.296-1.322.735-.048.735.792.783 1.399.253 3.26-.764 6.048-3.089 8.349-.157.153-.291.329-.568.654 1.385.024 2.535-.416 3.719-.268.372.048.888.029.917.444.038.53-.521.406-.855.425-2.649.129-4.974 1.079-7.022 2.74-.286.23-.602.449-.936.583-.176.071-.482.009-.644-.11-.224-.167-.038-.42.043-.625.262-.673.955-1.003 1.48-1.829-1.251.626-1.623.172-1.413-.835.482-2.268.888-4.569 1.933-6.674.143-.291.277-.601.482-.849.277-.335.549-.965 1.055-.659.415.253.034.744-.143 1.117-1.036 2.196-1.628 4.563-2.836 6.955" fill="#154CAD"/><path d="M176.676 180.066c-.797-.396-1.341-1.05-1.833-1.685-3.929-5.065-9.275-7.872-15.262-9.705-.706-.22-2.105-.396-1.88-.993.362-.95 1.432-.086 2.172.076 6.85 1.499 11.748 5.948 16.307 10.884.334.354.72.75.496 1.423" fill="#1947AB"/><path d="M133.689 130c1.26 2.324-1.652 8.067-4.865 9.38 1.939-3.17 4.216-5.848 4.865-9.38" fill="#194AAF"/><path d="M156.698 165.645c-1.021 0-2.043.009-3.065-.005-.31-.005-.739.048-.773-.382-.019-.296.32-.415.606-.473 2.211-.42 4.44-.262 6.664-.233.33.004.697.124.65.553-.043.397-.406.478-.74.478-1.112.014-2.23.004-3.342.004z" fill="#1749AB"/><path d="M148.482 160.756c-.467-.1-.534-.496-.448-.859.468-1.914 1.298-3.676 2.286-5.37a.59.59 0 0 1 .44-.244c.238 0 .272.253.224.42-.54 1.924-1.022 3.867-1.943 5.662-.105.21-.258.391-.559.391" fill="#144CAA"/><path d="M174.261 192.726c-.382.157-1.079.611-.736-.344.821-2.258 1.289-4.606 1.986-6.903.191 1.447-.124 2.836-.501 4.216-.625.916-.31 2.067-.749 3.031" fill="#B3D9F2"/><path d="M144.067 162.537c.429-.215.83-.339.821.377-.005.444.138 1.05-.477 1.146-.478.072-.287-.468-.378-.74.01-.258.024-.52.034-.783" fill="#17489D"/><path d="M115.468 57.74c2.024 4.048 2.926 8.445 3.976 12.794 1.466 6.974 2.053 14.096 3.504 21.07.635 3.042-.764 5.1-2.602 7.114-.358.391-.749.224-1.16.167-1.341-.196-2.468.41-3.709.811-2.778.888-5.036 2.783-7.79 3.633-.855.263-1.743.525-2.368 1.141-1.055 1.041-2.253 1.189-3.662 1.131-2.606-.105-5.212-.195-7.814-.32-4.707-.219-7.896-2.687-10.24-6.54-.549-.906-.964-1.904-1.694-2.701-2.187 2.095-4.578 2.186-6.86.22-1.943-1.681-3.318-3.767-4.053-6.245-.282-.96-.325-1.928.096-2.869.706-1.585 2.277-2.1 3.814-1.303.878.458 1.551 1.18 2.339 1.747.458.143.787.482 1.145.773.611.497 1.266.301 1.824-.023.64-.373.205-.936.014-1.356-1.212-2.66-2.363-5.361-4.554-7.423-.305-.287-.625-.616-.32-1.084 1.523-2.339 1.633-4.769.502-7.285-.058-.124-.024-.276-.005-.415-.582-3.609.263-6.907 2.182-9.967.367-.583.716-1.175 1.069-1.767.382-1.035 1.341-1.054 2.186-1.155 1.155-.138 2.33-.1 3.49-.038 3.322.177 6.239-.869 8.85-2.855 3.662-2.783 7.724-3.231 12.049-2.1 2.21.578 4.425 1.122 6.697 1.39.358.09.821.219.864.567.12.902.855 1.089 1.456 1.447.153.114.292.248.416.391.3.291.253.692.358 1.05" fill="#FEFEFE"/><path d="M112.694 54.628c-2.625-.1-5.108-.907-7.642-1.47-3.972-.888-7.748-.507-11.095 2.071-2.83 2.182-5.976 3.256-9.6 3.027-1.766-.11-3.637-.363-5.25.783-1.294.2-1.905 1.27-2.626 2.143-1.06 1.298-2.057 2.635-3.451 3.614-.535.372-1.036.778-2.23.64 2.02-1.38 3.39-2.908 4.55-4.612 2.038-2.993 4.916-3.905 8.373-3.528 3.403.373 6.43-.54 9.075-2.754 1.537-1.284 3.246-2.33 4.926-3.413 3.365-2.172 6.841-2.44 10.502-.917.368.153.702.482 1.251.32-1.862-1.112-3.733-1.943-5.862-2.096-.32-.023-.893.177-.845-.391.038-.434.573-.41.935-.392 1.695.1 3.304.487 4.769 1.39.191.119.425.157.64.233l-.014-.014c.754.917 1.88 1.136 2.921 1.47.726.234 1.213.545 1.294 1.332.009.65-.53.33-.817.45-.315.128-.639.032-.94-.101.363.22.549.453.005.673-.32.129-.64-.076-.96-.038-.759.086-1.451-.287-2.191-.32-2.998-.988-6.019-1.762-8.468-1.079 2.358-.778 5.284.224 8.234.917 2.144.568 4.311.954 6.54.658 1.351.048 2.588-1.064 4.282-.353-1.093.477-1.981.864-3.174 1.39 1.518.037 2.73.128 3.666 1.045 1.017.997.993 2.167.468 3.422-.091-.539-.177-1.078-.268-1.618-.353-1.17-1.355-1.523-2.353-1.537-1.628-.014-3.194-.134-4.645-.945" fill="#174AA9"/><path d="M75.856 70.772c1.728 2.588 1.475 5.165-.134 7.667-.296.458-.186.554.115.835 2.472 2.316 3.823 5.318 5.05 8.388.134.33.387.859-.057.978-.754.206-1.552.802-2.349.234-.477-.339-.83-.854-1.241-1.289q-.143-.715-.291-1.432c.434-.673-.272-.845-.55-1.155-1.002-1.112-1.909-2.263-2.357-3.728-.354-1.141-.387-1.127.582-2.187-1.976.888-3.91.979-5.938 1.695.534-.969.74-1.542 1.99-1.49 1.394.063 2.864-.548 4.096-1.875-1.213.348-2.2.668-3.208.907-.468.11-1.246.315-1.337-.277-.11-.726.697-.492 1.141-.53 1.69-.153 3.251-.578 4.397-1.962-1.37.888-2.826 1.504-4.511 1.537 1.623-.811 3.446-1.289 4.463-2.988-1.408 1.432-3.322 1.66-5.103 2.186-.406.12-.983.372-1.184-.272-.186-.587.358-.778.764-.993 1.022-.549 2.134-.93 3.06-1.661.44-.344.926-.645.964-1.284 0-.726.454-1.07 1.065-1.284.186-.005.377-.015.573-.02" fill="#174CAB"/><path d="M109.114 49.286c-2.821-2.788-5.876-5.003-10.182-4.22-1.71.31-3.141 1.146-4.35 2.349-1.45 1.441-2.84 2.945-4.262 4.415-.286.296-.654.74-1.055.45-.525-.383.062-.736.258-1.032 1.136-1.709 2.444-3.275 3.986-4.64 3.537-3.136 7.762-3.618 12.006-1.346 2.186 1.17 3.957 2.912 5.943 4.363.076.057.062.243.1.425-1.012.248-1.594-.735-2.463-.773 0-.005.019.01.019.01" fill="#1647AA"/><path d="M75.278 70.792c-.358.43-.711.854-1.064 1.284-1.528 1.212-3.184 2.157-5.376 2.587.745-1.513 2.144-2.043 2.984-3.108-.392-.272-.64.096-.95.081-.496-.023-1.217.187-1.318-.434-.105-.65.693-.453 1.065-.573 1.165-.372 1.957-1.212 2.821-1.99.291-.268.678-.736 1.055-.42.425.362-.019.716-.31 1.026-.377.406 0 .215.196.353.391.267.978.525.897 1.194" fill="#174EB1"/><path d="M70.218 57.545c-3.208 2.305-4.062 3.828-2.368 9.141-2.01-1.485-2.635-4.287-1.527-6.836.802-1.847 2.057-2.635 3.895-2.306" fill="#1646AB"/><path d="M77.86 57.144c-2.176 1.933-3.394 4.315-5.184 6.224-1.03 1.098-2.33 1.867-3.99 1.313-.654-.22-1.003-.625-.979-1.332.014-.444.124-.945.568-1.007.64-.095.52.51.516.879-.005.864.506.992 1.193.93 1.585-.148 2.401-1.312 3.136-2.491.84-1.347 1.685-2.664 2.87-3.738.443-.41.882-.812 1.87-.778" fill="#184EAD"/><path d="M85.56 49.024c-.267 1.575-.486 3.145-1.794 4.258-.315.267-.664.663-1.074.329s.038-.663.215-.95c.759-1.241 1.26-2.554 1.322-4.034.019-.434-.334-1.179.444-1.231.759-.053.649.754.845 1.231.052.13.033.277.043.396" fill="#184AAA"/><path d="M112.694 54.628c1.709.343 3.413.568 5.175.587.935.01 1.842.663 1.819 1.9-.277-.315-.526-.683-1.036-.55-1.036-.314-2.569.244-3.189 1.175-.182-.286-.358-.577-.54-.864.387-.654 1.117-.663 1.671-.897a3.8 3.8 0 0 0-1.952.625z" fill="#5185C9"/><path d="M96.636 49.439c-.358 2.043-4.488 5.394-6.984 5.614 2.382-2.082 5.064-3.375 6.983-5.614" fill="#144BA6"/><path d="M76.028 56.977c1.203-.993 2.616-1.218 4.043-1.223 1.523-.004 3.046.158 4.568.253.373.024.883.048.893.473.014.544-.54.372-.869.372-1.017.005-2.024-.1-3.04-.205-1.867-.205-3.767-.453-5.595.33" fill="#1650B1"/><path d="M89.642 47.945c-.282 1.656-.778 3.327-2.368 4.401-.258.172-.597.406-.888.138-.334-.31.02-.606.182-.84.864-1.207 1.518-2.535 2.157-3.871.124-.258.31-.492.635-.449.267.043.373.244.282.62" fill="#154AAB"/><path d="M70.223 69.956c1.67-1.609 3.327-3.227 4.2-5.724.66 2.387-1.336 4.984-4.2 5.724" fill="#124AA8"/><path d="M71.073 82.31c.324-.386-.191-.797.076-1.255 1.026-.062.983.94 1.375 1.523.08-.053.167-.077.195-.13.21-.41-.548-1.006.058-1.212.61-.205.916.463 1.184.945.253.464.487 1.06-.062 1.352-.545.29-1.26.381-1.805-.125-.258-.243-.334-.658-.697-.835-.272.12-.339-.024-.325-.263" fill="#1B57B8"/><path d="M114.718 53.23c-2.229.653-4.363.214-6.458-.593l.004-.005c.325.01.688-.071.96.048 1.504.659 2.745-.267 4.086-.606.582.916-.85.277-.601 1.045z" fill="#4985D5"/><path d="m71.073 82.31.324.268c-.081.291.134 1.064-.554.43-.339-.31-.668-.77-.577-1.347.53-.067.51.482.806.65" fill="#1556AE"/><path d="M67.626 75.804c.004.277-.148.482-.377.506-.377.038-.592-.22-.607-.578-.014-.257.172-.415.435-.41.315 0 .477.2.549.482" fill="#1E58AC"/><path d="M109.458 140.144c-.841-2.888-1.714-5.767-2.511-8.669-.578-2.091-.349-4.196.41-6.177.716-1.877 1.327-3.776 1.895-5.691.468-1.58 1.179-3.069 2.182-4.344.816-1.04.282-1.628-.401-2.181-.74-.597-1.279-.053-1.728.549a2.1 2.1 0 0 1-.573.525c.582-1.141-.506-1.366-.917-1.934-.31-.434-.143-1.413-.701-1.312-.721.133-.172.93-.22 1.436-.076.86-.931.039-1.217.588-.053.362.262.487.568.606 1.241.487 1.508 1.633.592 2.63-.282.306-.625.559-.969.793-1.093.744-1.461.639-1.714-.616-.406-2.01-.754-4.034-.625-6.096.138-2.187.854-2.893 3.026-3.017 1.16-.062 2.33-.053 3.495-.081 1.737-.048 3.308.382 4.668 1.523.521.434 1.065.887 1.929.954-1.194-2.186-3.074-3.069-5.371-3.384 3.342-2.096 6.001.062 8.789 1.293.549.244 1.012.664 1.546.941.296.153.736.472.979.009.229-.434-.243-.63-.525-.849-2.955-2.325-6.425-3.285-10.068-3.781-.439-.062-.888-.077-1.637-.139 1.527-1.088 2.845-1.909 4.248-2.577.549-.263 1.089-.043 1.623.148 1.996.701 3.686 1.976 5.538 2.95 1.189.625 2.401 1.165 3.857 1.165-2.668-1.585-5.337-3.165-8.063-4.784.998-.773 1.886-.735 2.822-.019 1.661 1.27 3.327 2.545 5.041 3.743.744.52 2.038 1.313 2.453.649.468-.754-1.016-1.017-1.632-1.485-1.389-1.055-2.888-1.966-4.273-3.255 1.117-.435 2.029-.206 2.783.348 2.96 2.172 6.049 4.192 8.598 6.884.873.921 1.126 1.833.744 3.031-.701 2.21-1.928 4.129-3.212 6.015-1.943 2.845-3.877 5.69-5.671 8.636-1.695 2.773-2.058 5.413-.86 8.559 3.046 8.02 7.447 15.309 11.701 22.684.997 1.728 2.009 3.457 3.265 5.022.262.377.52.755.783 1.132.429.53 1.002.954 1.179 1.661 2.158 3.093 4.425 6.101 6.855 8.989 1.795 1.298 3.012 3.141 4.377 4.821 3.318 4.072 6.712 8.106 8.956 12.923.076.157.162.334.458.353.096-.583-.22-1.046-.43-1.532-1.236-2.846-3.141-5.261-4.979-7.72-.353-.472-.935-.954-.448-1.58.415-.534 1.055-.229 1.561-.062 1.771.583 3.437 1.37 4.702 2.631-1.561-1.709-3.614-2.683-6.02-2.874-.802-.062-1.475-.325-1.957-.917-1.642-2.019-3.361-3.976-4.946-6.043-.143-.186-.243-.396-.229-.64l-.444-.807c.65-.797 1.494-.281 2.254-.343 6.11.506 11.948 1.871 17.123 5.375 2.095 1.418 3.938 3.112 5.585 5.027.468.544.539 1.117.501 1.804-.229 4.082-1.589 7.829-3.327 11.457-1.929 4.029-4.015 7.991-5.862 12.058-2.573 5.667-7.132 8.817-12.894 10.45-4.459 1.265-8.478 0-11.829-2.95-6.731-5.92-12.068-12.865-15.309-21.348-4.75-12.436-8.154-25.239-10.856-38.252-1.079-5.117-2.711-10.063-4.668-14.903" fill="#FEFEFE"/><path d="M149.17 172.571c1.618 1.919 3.294 3.791 4.821 5.772.712.926 1.456 1.418 2.635 1.527 1.982.186 3.791.903 5.294 2.263.487.444.874.96 1.122 1.862-1.174-.864-2.033-1.795-3.184-2.315-1.179-.535-2.348-1.089-3.69-1.18-.167.697.358.974.635 1.347 1.833 2.463 3.714 4.893 4.998 7.709.229.506.401 1.041.563 1.571.12.382.058.816-.324.969-.478.191-.616-.282-.759-.611-2.42-5.543-6.44-9.973-10.168-14.608-.988-1.231-1.991-2.449-2.988-3.676.491.034.692-.424 1.045-.63m-7.901-8.354c-.491-.482-.902-1.026-1.179-1.661.621.392 1.327.721 1.179 1.661" fill="#17489D"/><path d="M150.979 171.421c-.73.258-1.57-.224-2.253.344-.315-.377-.005-.487.258-.487.663 0 1.351-.196 1.995.143" fill="#5BB2F1"/><path d="M125.683 133.733c-.501-1.213-.959-2.33-1.422-3.442-.158-.373-.091-.726.057-1.079 1.222-2.898 3.041-5.423 4.821-8.025 2.096 3.165.029 9.839-3.456 12.546" fill="#FBFDFC"/><path d="M122.404 79.714c-.435-.721-.444-1.437-.53-2.115-.072-.554-.602-1.351.186-1.647 1.747-.664 2.439-.473 2.874.821.978 2.898.978 5.838.005 8.755-.182.544-.54 1.103-1.16 1.045-.664-.057-.535-.782-.645-1.236-.558-2.33.783-4.416.912-6.66.029-.52.582-1.284-.01-1.484-.692-.23-.797.716-1.074 1.203-.219.396-.358.835-.558 1.318" fill="#F6FAFB"/><path d="M104.779 106.384c1.996-1.986 4.201-2.053 6.569-1.737-1.814 1.976-4.244 1.255-6.569 1.737" fill="#EBF4F7"/><path d="M120.814 72.214c.057-.3-.133-.644.373-1.131.205 1.332.386 2.492.568 3.652-.468.262-.54-.105-.597-.41-.134-.703-.234-1.41-.344-2.11" fill="#568BD5"/><path d="M108.866 116.204c-.244-1.151.233-1.456 1.021-1.748.014.793-.468 1.108-1.021 1.748" fill="#BCD3E9"/><path d="M1.381 29.432c.13-6.172 2.597-11.49 6.282-16.254 3.562-4.597 7.863-8.359 13.52-10.211C31.67-.461 41.036 6.896 40.377 17.933c-.257 4.339-1.522 8.416-2.883 12.478-3.456 10.306-3.236 20.503.716 30.633a25 25 0 0 1 1.132 3.737c.754 3.442-2.392 7.237-5.92 7.266-1.079.01-1.728-.597-2.282-1.38-1.126-1.594-1.632-3.441-2.052-5.308-1.413-6.268-2.783-12.545-4.468-18.751a11.1 11.1 0 0 0-2.53-4.611c-.66-.726-1.37-.936-2.24-.592-1.427.563-2.854 1.14-4.253 1.766-3.718 1.661-6.268 1.25-9.16-1.585-3.39-3.322-5.156-7.347-5.056-12.154" fill="#FEFEFE"/><path d="M111.897 38.464c3.953-1.05 7.175.63 8.015 4.974a11.2 11.2 0 0 1 .086 3.743c-.048.348-.076.811-.511.893-.382.076-.511-.349-.673-.607-1.165-1.842-2.296-3.709-3.466-5.547-.873-1.375-2.081-2.449-3.451-3.456" fill="#F8FCFB"/><path d="M110.322 38.951c-1.447.487-2.635.883-3.996 1.341 1.28-1.522 2.325-1.895 3.996-1.341" fill="#5EA7EB"/><path d="M113.296 37.361c-.898-.004-1.657.87-2.831.349 1.012-.626 1.924-.525 2.831-.349" fill="#89B7E0"/><path d="M162.885 53.115c.439.09 1.25-.215 1.494.4.186.473-.415.974-.773 1.39-1.084 1.25-4.516 1.527-5.662.472-.487-.449-.029-.625.258-.816 1.384-.898 2.883-1.456 4.683-1.447" fill="#F8FBFC"/><path d="M5.296 95.41c.63-4.092 3.332-7.71 5.972-7.681-3.58 1.594-4.898 4.578-5.672 7.938-.257.096-.353.01-.3-.258" fill="#9ABAE5"/><path d="m5.296 95.41.3.257c-.214 1.967-.52 3.929.516 5.805a8.6 8.6 0 0 0 1.7 2.143c-2.345-.587-3.347-4.878-2.516-8.206" fill="#517EC6"/><path d="M62.408 76c.855 2.014 2.306 3.656 3.447 5.709-2.359-1.002-3.857-3.49-3.447-5.71" fill="#E0EBF5"/><path d="M160.264 73.212c.162-2.124 1.26-3.89 2.936-5.332.348-.301.85-.535 1.289-.263.492.3.296.85.186 1.275-.601 2.258-1.971 4.072-3.466 5.8-.41.472-.716.362-.84-.22-.076-.367-.067-.745-.105-1.26" fill="#F8FBFB"/><path d="M164.637 97.925c.425.086 1.155-.343 1.427.225s-.291 1.102-.64 1.58c-.381.52-.763 1.045-1.179 1.537-.668.792-1.322.678-1.709-.282-.587-1.456.459-3.046 2.101-3.06" fill="#F6FAFA"/><path d="M120.852 66.147c-.071.372.206.911-.463.969-.153.014-.315-.139-.477-.215.511-.506.606-1.055.177-1.656.133-.034.281-.11.405-.086.664.124.196.668.358.988" fill="#4D89D0"/><path d="M120.566 67.526c.334.821.439 1.29 0 1.91-.386-.62-.353-1.089 0-1.91" fill="#669FE0"/><path d="M143.332 26.186c-.234-.019-.463-.024-.693-.057-2.162-.3-2.458-.864-1.479-2.76.496-.959 1.117-1.823 1.938-2.53 1.36-1.174 2.625-1.207 4.024-.123 1.862 1.441 1.928 2.181.22 3.8-1.113 1.05-2.411 1.747-4.01 1.67" fill="#FCFDFD"/><path d="M168.298 65.526c.649.143 1.131.487 1.561.936 1.256 1.313 2.306 2.788 3.389 4.244.315.424.311.716.02 1.093-.65.845-1.242 1.89-2.44 1.861-1.231-.028-1.771-1.083-2.215-2.071-.697-1.542-1.026-3.18-1.079-4.865-.009-.544-.019-1.16.764-1.198" fill="#FBFDFC"/><path d="M180.452 67.57c-.153.682-.014 1.747-1.322 1.718-1.165-.029-2.191-1.256-2.115-2.487.057-.96.578-1.561 1.547-1.628 1.098-.072 1.909.93 1.89 2.396" fill="#F6FAFB"/><path d="M35.556 82.277c-.554-1.99.559-4.397 2.42-5.189.87-.372 1.7-.396 2.402.406.911 1.04 1.207 2.921.572 4.029-.205.353-.472.668-.71 1.002-.235.043-.32-.1-.378-.286a1.3 1.3 0 0 1 .014-.353c.086-.392.158-.783.01-1.175-.783-.124-1.638-.763-2.187.449-.128.282-.496.029-.701-.162-.272-.253-.487-.191-.668.11-.268.381-.015 1.117-.774 1.169" fill="#F6FAFA"/><path d="M35.556 82.277c.544-.334.043-1.045.506-1.408.22.124.282.339.353.563.535 1.747 1.227 2.005 2.798 1.05.234-.143.453-.315.754-.281.09.11.181.214.272.324-.582 1.07-1.513 1.623-2.692 1.542-1.046-.076-1.762-.711-1.99-1.79" fill="#C5D8E7"/><path d="M146.134 73.718c-1.184.01-1.68-.497-1.795-1.413-.239-1.981 1.671-4.65 3.619-5.046 1.093-.224 2.043.062 2.721.964.649.86.253 1.704-.225 2.454-1.055 1.68-2.492 2.845-4.32 3.04" fill="#FBFDFC"/><path d="M19.956 119.077c-.115-1.145.152-1.909 1.126-2.401.034 1.27 0 1.346-1.126 2.401" fill="#D1E4EF"/><path d="M21.14 119.574c.763-1.06.85-2 1.246-2.879.649 1.289.405 1.967-1.246 2.879" fill="#C8DAE8"/><path d="M56.403 28.315c-.01 1.156-1.437 2.54-2.616 2.459-1.08-.072-1.71-.693-1.757-1.79-.048-1.18 1.341-2.459 2.592-2.44 1.003.01 1.785.793 1.78 1.771" fill="#F7FBFA"/><path d="M168.279 84.903c-1.365 0-2.291-.779-2.272-1.905.024-1.46 1.374-2.611 3.05-2.597 1.384.014 2.325.773 2.31 1.876-.014 1.38-1.484 2.63-3.088 2.626" fill="#F8FCFA"/><path d="M35.356 179.216c4.716-1.236 9.327-.993 13.814.802.349.139.922.244.683.812-.167.406-.606.348-.978.191-4.192-1.728-8.579-1.996-13.037-1.747-.158.014-.32-.034-.483-.058" fill="#1A4B96"/><path d="M40.058 180.238c3.437-.086 6.711.668 9.876 1.919.31.124.783.272.678.74-.08.363-.463.248-.702.148-3.179-1.318-6.573-1.833-9.852-2.807" fill="#2A5D9C"/><path d="M88.205 203.166c-2.11 1.661-4.554 2.831-6.66 4.511-.233.186-.51.296-.715-.014-.301-.454.09-.673.372-.898 2.086-1.656 4.459-2.778 7.003-3.599" fill="#1E4C8D"/><path d="M73.43 206.861c-.644 1.231-1.847 1.852-2.878 2.659-.764.596-1.57 1.136-2.373 1.685-.286.2-.654.587-.96.248-.348-.387.144-.659.392-.869a27 27 0 0 1 5.82-3.723" fill="#224F8E"/><path d="M81.508 204.851c-1.495 2.358-3.68 3.7-6.173 4.568l-.272-.415z" fill="#275393"/><path d="M101.142 203.433c-2.168 1.48-4.502 2.502-7.142 2.707 2.196-1.399 4.621-2.186 7.142-2.707" fill="#4066A7"/><path d="M89.532 204.727c-1.795.959-3.456 2.205-5.537 2.597 1.694-1.618 3.776-2.607 5.814-3.738.406.668-.282.802-.305 1.17z" fill="#2D5B9F"/><path d="M106.923 204.713c-2.506-.253-4.95.52-7.781.697 1.842-1.428 5.695-1.748 7.781-.697" fill="#29539B"/><path d="M67.507 208.379c-.306 1.661-1.457 2.716-2.64 3.723-.349.296-.95.416-1.246-.019-.277-.406.248-.63.53-.821 1.231-.826 2.148-2 3.356-2.883" fill="#255492"/><path d="M55.644 211.439c-.501 1.279-1.26 2.372-2.478 3.103-.21.124-.525.324-.754.066-.253-.281.038-.496.206-.696l2.477-2.951z" fill="#2C5893"/><path d="M60.117 210.422c-.602 1.547-1.342 2.511-2.277 3.332-.244.215-.564.396-.855.076-.234-.257-.048-.534.12-.744.773-.95 1.58-1.876 3.012-2.664" fill="#26589B"/><path d="M46.46 184.854c-1.72-.387-3.428-.778-5.132-1.661 1.303-.396 3.933.439 5.131 1.661" fill="#2D5E99"/><path d="M37.67 184.267c1.782-.148 3.214.663 4.593 1.637-1.828.311-3.06-1.059-4.592-1.637" fill="#2B5395"/><path d="M91.847 205.916c.888-1.366 2.392-1.714 3.576-2.55.263-.181.54.034.687.296.148.263-.01.435-.248.54-1.337.573-2.678 1.141-4.015 1.714" fill="#4B709D"/><path d="M63.778 209.653c-.453 1.514-1.079 2.373-2.057 2.955-.22.134-.511.296-.769.048-.286-.277-.067-.539.12-.711.763-.712 1.417-1.552 2.706-2.292" fill="#355E98"/><path d="M89.504 204.756c.649.109.902-.783 1.78-.592-.85 1.651-2.306 2.281-4.053 2.974.688-1.122 1.9-1.389 2.301-2.416a.2.2 0 0 1-.028.034" fill="#184AA4"/><path d="M74.762 206.55c.378 1.786-1.17 3.313-3.46 3.686 1.264-1.194 2.859-1.795 3.46-3.686" fill="#335E94"/><path d="M40.922 184.448c1.35-.472 2.406.296 3.537.74.057.024.105.263.057.344-.172.277-.491.301-.735.2-.964-.405-1.91-.854-2.86-1.284" fill="#355F9A"/><path d="M44.368 215.138c-1.04.769-1.985.597-2.921.411-.253-.053-.597-.167-.52-.511.066-.301.41-.353.678-.348.859.004 1.723-.01 2.763.448" fill="#265693"/><path d="M51.028 212.899c-.053.191-.058.292-.105.373-.363.635-.583 1.399-1.38 1.661-.224.072-.358-.157-.325-.339.148-.811.669-1.413 1.213-1.986.076-.081.315-.133.377-.076.129.095.177.282.22.367" fill="#2E619E"/><path d="M129.015 206.818c-.033.243-.21.573-.396.42-.668-.535-.964-.363-1.169.401-.053.205-.387.32-.564.067-.219-.32 0-.645.182-.893.305-.411.673-.821 1.27-.64.31.096.592.282.677.645" fill="#36598B"/><path d="M120.194 205.41c-.282.649.377 1.575-.597 1.923-.31.11-.645 0-.711-.429-.148-.969.558-1.241 1.308-1.494" fill="#466FA2"/><path d="M125.621 206.956c-.062.487-.214.898-.806.926-.406.019-.611-.181-.573-.572.052-.554.348-.989.907-1.046.386-.048.449.363.472.692" fill="#3A639B"/><path d="M116.671 205.028c.654.234.515.907.725 1.384.091.21.105.582-.176.539-.678-.1-.707-.759-.855-1.269-.071-.249-.134-.573.306-.654" fill="#46729D"/><path d="M122.146 207.2c-.091.377-.219.716-.697.711-.315-.005-.549-.148-.568-.468-.024-.472.301-.625.711-.649.306-.024.564.014.554.406" fill="#4C6D9E"/><path d="M123.85 207.052c-.086.372-.205.716-.635.807-.276.057-.439-.082-.448-.359-.01-.42.21-.696.615-.778.244-.052.454.029.468.33" fill="#3E669A"/><path d="M54.064 150.307c.75 5.91 2.129 11.738 2.94 17.658.043.301.253.735-.152.849-.516.148-.54-.362-.635-.706-.573-2.072-.678-4.21-.931-6.33-.382-3.222-.821-6.44-1.213-9.662-.071-.597-.01-1.208-.01-1.809" fill="#6CACED"/><path d="M57.114 172.49c-.792-.993-.434-1.857-.73-2.549-.067-.162.057-.358.286-.382.291-.028.435.134.44.396.014.716.004 1.432.004 2.535" fill="#69A3EE"/><path d="M56.98 172.939c-.887-.038-1.618-.425-2.463-1.117 1.156-.005 1.652.893 2.464 1.117" fill="#5594E4"/><path d="M94.927 64.839c-.039.835-.478 1.26-1.313 1.303-.974.048-1.953.048-2.917.19-3.04.45-5.5 1.887-7.237 4.474-.23.344-.501.678-.816.936-.487.386-1.05.386-1.542.004-.444-.348-.544-.816-.34-1.37a9.07 9.07 0 0 1 2.808-3.919c3.017-2.463 6.44-3.384 10.292-2.654.616.114 1.065.325 1.065 1.036" fill="#164AA7"/><path d="M93.366 68.782c-.463.391-.66.558-.855.72 2.454 1.185 3.399 2.803 2.669 4.574-.693 1.685-2.34 2.377-4.192 1.68.63-.344.855-.659.134-1.15-.587-.396-.83-1.113-.979-1.805-.2-.94-.29-1.838 1.098-1.857.072 0 .163-.095.215-.167.043-.062.048-.153.072-.229-1.752-.224-3.118.358-3.814 1.556-.798 1.366-.124 2.874-.296 4.435-1.982-1.862-1.652-4.898.53-6.354 1.518-1.007 3.25-1.284 5.418-1.403" fill="#1B4EA9"/><path d="M109.467 60.223c1.967-.015 3.413.267 4.812.83.477.191.931.425 1.279.821.397.454.602.945.263 1.523-.33.559-.864.563-1.351.372-3.07-1.212-6.077-1.069-9.065.287-.583.262-1.203.224-1.58-.435-.406-.71-.105-1.27.463-1.694 1.67-1.246 3.604-1.657 5.179-1.704" fill="#174BA8"/><path d="M103.09 70.329c.783.596 1.088 1.498 1.604 2.243 1.164 1.685 2.367 3.342 3.442 5.08 1.088 1.766.902 3.24-.359 4.286-.291.243-.663.559-.988.33-.458-.33.053-.64.206-.927.572-1.069.596-1.475-.024-3.05-.487 1.919-1.762 2.501-3.38 2.754-.888.139-1.723.635-2.077 1.857 1.471-.315 2.273-1.804 4.139-1.728-1.203 1.007-2.067 1.914-3.103 2.545-.802.491-1.871.601-2.434-.463-.55-1.041.052-1.82.95-2.287.692-.358 1.47-.578 2.229-.773 2.296-.597 3.189-2.626 2.015-4.707-.774-1.375-1.719-2.66-2.225-4.177-.096-.306-.258-.597.005-.983" fill="#1B4FA0"/><path d="M107.424 67.98c-.034-2.024 1.002-2.955 3.289-2.96 2.11-.005 4.038 1.719 4.072 3.638.029 1.585-1.442 2.697-3.576 2.711-2.864.024-3.742-.764-3.785-3.39" fill="#164AA6"/><path d="M113.744 88.621c-.506.516-1.227.497-1.885.54-.693.043-1.404.01-2.091-.091-3.375-.482-6.469.105-9.261 2.167-.802.592-1.728 1.213-2.788.845 4.521-4.821 10.182-4.554 16.025-3.46" fill="#1D4993"/><path d="M74.658 93.39c-.984-.506-2.464-3.7-2.12-4.63.282-.76.936-.84 1.614-.74 1.704.248 4.019 2.496 4.325 4.162.047.268.19.569-.182.697-.263.091-.453-.095-.563-.3-.602-1.113-1.556-1.82-2.545-2.569-.701-.534-.697-.262-.816.272-.133.607-.019 1.199.139 1.786.11.434.43.84.148 1.322" fill="#204FA4"/><path d="M102.574 93.667c2.01-1.618 4-2.64 6.468-2.349.397.048.974.144.931.654-.057.66-.644.373-1.002.301-1.389-.281-2.545.287-3.729.874-.744.372-1.479.93-2.668.52" fill="#2E589E"/><path d="M114.642 56.604c.415-1.6 1.714-.506 2.559-.826-.611.673-1.48.802-2.273 1.093a15 15 0 0 1-.286-.267" fill="#174AA9"/><path d="M105.352 93.968c.769-.511 1.466-.535 2.201-.406-.554.654-1.198.917-2.201.406" fill="#4C729E"/><path d="M108.259 52.637c-1.866.034-3.566-.945-5.461-.85-1.465.072-2.93-.004-4.349.401 3.347-1.785 6.588-.854 9.815.444z" fill="#4985D5"/><path d="M79.001 87.056c-1.026-1.227-1.36-2.774-1.914-4.225 1.146 1.165 1.451 2.725 1.914 4.224" fill="#568BD6"/><path d="M72.696 74.61c1.078-.758 1.794-1.852 2.701-2.75-.439 1.376-1.279 2.359-2.701 2.75" fill="#518ADB"/><path d="M152.616 174.672c8.846-.229 15.448 3.952 21 10.965-.988-.124-1.332-.592-1.704-1.022-4.841-5.604-10.841-8.96-18.312-9.494-.353-.02-.75.047-.984-.449" fill="#215496"/><path d="M166.131 176.782c2.769.415 7.141 5.098 7.275 7.872-2.134-3.161-4.664-5.547-7.275-7.872" fill="#22539E"/><path d="M158.698 212.513c2.015-2.693 3.48-5.528 4.211-8.894 1.098 2.569-1.518 8.006-4.211 8.894" fill="#295798"/><path d="M153.251 176.452c2.822-.811 8.66.955 9.935 3.208-3.285-1.947-6.593-2.635-9.935-3.208" fill="#25599A"/><path d="M154.979 177.951c3.337.411 6.741.735 8.789 3.977-2.511-2.234-5.781-2.788-8.789-3.977" fill="#26589A"/><path d="M159.39 207.262c.268 2.339-.773 4.177-2.019 5.929-.186.262-.482.563-.811.396-.382-.196-.177-.568-.034-.85.95-1.828 1.905-3.647 2.864-5.475" fill="#235898"/><path d="M153.834 173.517c3.122-.196 6.186-.062 8.845 1.928-2.873-.969-5.871-1.36-8.845-1.928" fill="#305B94"/><path d="M141.823 214.608c-2.578-1.398-3.637-4.086-2.387-5.986.502 2.182 1.012 4.254 2.387 5.986" fill="#205196"/><path d="M138.209 211.014c-.969-1.17-1.365-2.516-1.446-3.962-.019-.33-.005-.731.401-.783.558-.072.516.42.539.768.086 1.332.33 2.645.506 3.977" fill="#365E9C"/><path d="M143.847 213.219c.759 1.261 1.69 2.402 2.707 3.805-1.699-.516-2.759-2.062-2.707-3.805" fill="#366096"/><path d="M156.039 211.09c.124 1.232-.52 2.024-1.122 2.817-.143.191-.41.2-.63.038-.195-.148-.143-.358-.057-.501.492-.817.797-1.776 1.809-2.354" fill="#2E5993"/><path d="M151.352 215.859c-.349-.067-.769-.172-.588-.468.397-.639 1.141-.868 1.824-1.107.243-.086.496.071.401.358-.267.802-1.003.988-1.637 1.217" fill="#245790"/><path d="M118.828 132.191c.01.305-.147.458-.41.434-.301-.029-.511-.224-.525-.539-.014-.258.124-.454.406-.425.319.028.463.262.529.53" fill="#638099"/><path d="M26 44.508c-1.653-2.97-1.653-6.092-.803-9.27.582-2.178 1.093-4.388 2.249-6.369-.067 1.16.806.277 1.16.535.334.663-.106 1.164-.392 1.675a22.4 22.4 0 0 0-2.602 7.772 3.5 3.5 0 0 0-.052.697c.033.635-.167 1.48.616 1.685.764.2.864-.683 1.16-1.16.51-.836 1.265-1.494 1.752-2.435-.392-.21-.85.554-1.132 0-.229-.448.167-.783.42-1.102.96-1.223 1.695-2.554 2.153-4.049.263-.85.802-1.546 1.284-2.277-1.078 1.838-2.482 3.466-3.456 5.376-.181.353-.382.954-.83.768-.554-.229-.268-.811-.082-1.227 1.332-2.96 2.363-6.096 4.95-8.44-.997-.348-1.407.736-2.176.545-.401-.788.32-1.18.63-1.695.363-.601.94-1.026 1.456-1.67-.702.52-1.131 1.16-1.757 1.57-.233.152-.515.315-.768.095-.277-.238-.067-.52.062-.75.506-.892 1.103-1.727 1.695-2.582-.392-.114-.74.62-1.08.053-.205-.344.106-.602.34-.826.272-.258.348-.654.649-.893-.139.096-.225.234-.31.368-.201.31-.382.725-.845.444-.373-.225-.344-.626-.234-1.008.2-.697.687-1.312.53-2.114-.048 1.694-1.251 3.036-1.28 4.764-.028 1.795.043 3.652-1.088 5.236-.206.287-.263.736-.778.64.205-1.733.902-3.365.888-5.16-.02-1.962-.669-3.504-2.287-4.621.01-.635.372-1.065.83-1.442a.8.8 0 0 1 .363-.052c.721-.038.73-.716 1.003-1.141.267-.416.415-.912.835-1.222.396.105.85.09 1.084.53-.85.706-.907 1.857-1.532 2.687.649-.811.697-1.971 1.565-2.654 3.16 2.153 5.027 6.784 4.316 10.497-.678 3.547-2.139 6.803-3.58 10.068-.373.84-.669 1.7-.95 2.568-1.29.855-1.814 2.292-2.64 3.495-.363.534.129.826.52 1.088.358.191.215.668.492.907 1.036-.65-.134-1.26-.02-1.89.344-.778.335-1.767 1.309-2.163-.082 1.6.071 3.184.267 4.764-.444.397-.96.717-1.337 1.199-.616.792-1.026.444-1.437-.249-.305-.558-.214-1.441-1.13-1.565" fill="#64B4EE"/><path d="M26 44.508c.3-.884.648-.435.868.014.344.692.602 1.427.917 2.191.806-.525.878-1.871 2.134-1.594.267.539.295 1.078.014 1.623-.1.54-.573.82-.902 1.303.377-.449.692-.845 1.203-.988.29-.034.61-.053.568.362-.048.488-.191.893.563 1.013.372.057.134.544-.01.83-.281.563-.563 1.132-.85 1.695.44.248 1.137-.239 1.046.067-.239.825.735 1.728-.205 2.439-.096.21-.167.43-.31.62-1.075 1.395-.87 3.476.453 4.598.086.21.052.587.477.286.401-.286.712-.869 1.351-.472.244.143 1.046-.306.602.572-.282.564-.544 1.132-.86 1.795 2.335-.415.822.874.788 1.523-.114.75-.969.864-1.365 1.475.926.034 1.16-1.327 2.148-.85.325.392.396.85.23 1.308-.163.454-.077.654.276 1.075.788.935-.234 1.632-.654 2.391.52.081.912-1.346 1.566-.143.453.835.792 1.58-.244 2.277-1.537 1.04-2.993.625-3.594-1.256-.597-1.852-.993-3.77-1.456-5.666-1.27-5.194-2.52-10.392-3.805-15.581-.243-.984-.63-1.938-.95-2.907" fill="#164DA6"/><path d="M14.266 36.67c-4.077-4.856-4.75-9.462-2.297-14.861 2.411-5.309 7.58-8.364 13.219-8.03 1.322.077 2.716.167 3.652 1.37-.45.917-.545 2.063-1.68 2.52l.014.01c-.554-.682.043-1.198.19-1.685.172-.234-.128-.238.043-.162.015.01.005.048-.047.105-.234.234-.23.783-.778.583-.397-1.156-1.113-1.676-2.363-1.528-2.277.272-4.903.544-6.306 2.2-1.514 1.786-4.206 2.254-4.688 4.435.601-.768 1.46-1.833 2.644-2.54.898-.534 1.323-.329 1.428.569-.43.501-1.208.802-.965 1.69-.878.697-1.709 1.441-2.363 2.367-.372 1.012-1.317 1.79-1.202 2.998-.043.23-.22.387-.335.573.139-.067.2-.21.263-.33.305-.548.549-1.135.96-1.632.276-.224.548-.61.935-.281.291.243.095.606-.005.907-.076.22-.176.43-.286.63-1.676 3.107-1.738 6.105.53 8.998.425.549.01.921-.564 1.093" fill="#68B3EB"/><path d="M14.266 36.67c.114-.411 1.188-.865-.206-1.213-.425-.105-.63-1.366-.802-2.13-.143-.644.048-1.34-.902-1.603-.468-.13-.11-.645.029-.96.816-1.814 1.002-3.857 2.239-5.533-.502-.148-.616.215-.864.282-.43.32-.487 1.012-1.132 1.112.014-.31-.735-.076-.415-.42.72-.768.711-1.938 1.556-2.601 1.003-.578 1.633-1.633 2.702-2.144.09-.043-.224-.024-.272-.157-.955-1.218.41-1.218.883-1.685 1.184.066 2.048-.893 3.18-.989 1.727-.171 3.37-.892 5.17-.635.749.11.591-.916 1.002-1.303.052-.043.105-.08.157-.124.377-.496.76-.988 1.275-1.666-.058 1.117-.821 1.852-.702 2.783-.372.468-.745.931-1.122 1.399-4.535-.12-7.652 2.143-9.824 5.915-.878 1.527-1.57 3.145-1.675 4.964-.091 1.561.568 2.721 1.727 3.647.268.215.373.425.263.692-.315.774-.625 1.552-1.022 2.282-.314.592-.792.55-1.245.086" fill="#1C53AD"/><path d="M26.357 2.857C13.731 5.96 1.42 22.716 3.61 34.115c-.84-1.098-.997-2.263-1.03-3.451-.12-3.972 1.06-7.633 2.844-11.104C8.92 12.767 14.09 7.636 20.987 4.3c1.694-.817 3.456-1.461 5.37-1.442" fill="#1B4F99"/><path d="M31.365 58.81c-.611-.196-.945-.592-1.131-1.237-.74-2.535-.74-2.606 1.117-4.1 1.422.033.935 1.389 1.007 1.947.086.673.477 1.284.406 1.972-.234.697-.416 1.456-1.4 1.418" fill="#1551AF"/><path d="M27.727 43.663c-.988-.139-1.327-.573-.697-1.48.764-1.098 1.504-2.215 2.282-3.304.181-.253.492-.744.673.039l-.334 1.437-1.127 2.224c-.143.453-.21.96-.797 1.084" fill="#1A51AA"/><path d="M34.63 63.015c-.888-.024-1.088.893-1.709 1.232-.239.129-.453.601-.783.172-.243-.325-.234-.721.115-.979.51-.377 1.06-.702 1.59-1.05.176.315.725.167.787.625" fill="#7AB0E6"/><path d="M31.365 58.81c.659-.282.94-.94 1.399-1.423.257.334.701.573.553 1.108-.644-.01-.93.52-1.341.873-.23.196-.454.635-.773.396-.411-.3.028-.64.162-.954" fill="#68ACE8"/><path d="M27.154 17.675c.654-.778.893-1.833 1.68-2.52a.8.8 0 0 1 .249.066c-.158.97-.707 1.762-1.17 2.587-.286.506-.649.726-.759-.133" fill="#11519B"/><path d="M30.234 47.062c-.54.606-1.08 1.217-1.623 1.823.114-.95.634-1.6 1.322-2.143q.15.156.3.32" fill="#64B4EE"/><path d="M39.967 82.2c-.234.22-.468.435-.697.66-.616.6-1.351.844-2.139.496-.73-.325-1.036-.998-1.026-1.8 0-.229-.029-.458-.043-.682.11-.344.134-.798.63-.769.592.038.42.73.783 1.108.382-.44.224-1.571.415-1.323.712.921 1.929-.563 2.382.664-.343.735-1.198.916-1.58 1.47 1.122-.95 1.122-.95 1.356-.02a.24.24 0 0 0-.081.197" fill="#1E4E9F"/><path d="M40.048 82c.02-.544-.167-.65-.62-.32-.44.325-.802.774-1.375.879-.124.023-.263-.015-.468-.144 1.112-.343 1.718-1.346 2.683-1.866.005.496.258 1.031-.22 1.451" fill="#C5D8E7"/><path d="M111.907 70.558c-1.032.186-1.848.076-2.631-.139-1.136-.31-.773-1.356-.864-2.105-.086-.702-.186-1.57.731-1.905.482-.176 1.136-.477 1.002.606-.177 1.442.411 2.597 1.762 3.543" fill="#F5F9F9"/><path d="M112.561 68.161c.453.081.802.258.897.702.048.243-.21.32-.368.282-.506-.12-.506-.545-.529-.984" fill="#99BDDE"/><path d="M30.186 27.308c.477-.368.935-.764 1.432-1.098.363-.243.873-.358 1.17-.024.434.497-.206.711-.454.96-2.497 2.525-3.504 5.828-4.802 8.993 1.389-2.496 3.107-4.74 5.017-6.855-1.943 2.54-2.105 6-4.698 8.311.907.067 1.165-1.188 1.686-.63.558.606-.368 1.108-.697 1.618-.502.779-1.15 1.452-1.561 2.306-.225.463-.454 1.189-1.132.964-.558-.186-.897-.74-.921-1.437-.072-2.08.468-4.043 1.103-5.99.577-1.772 1.56-3.356 2.315-5.046.134-.984.578-1.719 1.542-2.072" fill="#164CAB"/><path d="M30.186 27.308c-.511.687-1.027 1.375-1.538 2.062-.563.23-1.322.917-1.198-.501v-.005c1.437-1.652 1.537-3.714 1.528-5.71-.005-.887.238-1.613.463-2.395.19-.664.96-1.089.348-2.077-.315-.516.86-.855 1.475-1.337.258 1.49-1.288 2.435-.887 3.924.816-.444.916-1.36 1.637-1.756-.139 1.035-.902 1.756-1.456 2.64.783.028.878-.879 1.661-1.008-.291 1.714-1.709 2.73-2.41 4.53.926-.873 1.627-1.551 2.348-2.21.215-.196.463-.606.793-.253.295.32-.067.578-.273.817-.902 1.035-2.047 1.895-2.491 3.279" fill="#1650B2"/><path d="M27.727 43.663c.268-.363.53-.726.797-1.084.473.592 1.237 1.117.32 1.953-.267.243-.439.696-.864.482-.343-.172-.215-.554-.105-.87a.406.406 0 0 0-.148-.481" fill="#1454AE"/><path d="M30.2 15.784c-.487 1.256-.95 2.526-1.948 3.509.139-1.25.86-2.272 1.285-3.408.09-.244.405-.134.63-.134z" fill="#1F5DA8"/><path d="M20.166 18.797c-1.031.262-1.786 1.575-3.084.816-.224-.668-.277-.721-.898-.334-1.074.677-1.9 1.632-2.72 2.587-.344.401-.578.95-1.385 1.017 1.198-2.482 2.893-4.258 5.476-5.118-.32-.486-.554.039-.965-.267.616-.391 1.16-.802 1.757-1.103 1.752-.892 3.628-1.398 5.566-1.752.97-.176 1.795.258 2.654.406.726.124-.167.983.034 1.518l.014-.019c-.496 1.203-1.327 1.71-2.683 1.58-1.284-.124-2.501.492-3.766.669" fill="#144AAD"/><path d="M16.199 21.298c.368-.005.515-.53 1.184-.353-1.337.892-2.053 2.3-3.619 2.659.616-.974 1.194-1.991 2.435-2.306m-3.571 5.327c.41-.334.563-.935 1.132-1.112l-1.619 2.85c-.458-.883.206-1.227.487-1.738" fill="#144AAD"/><path d="M20.166 18.797c.983-.526 2.052-.884 3.14-.831 1.395.072 2.464-.34 3.304-1.423-.114 1.208-.215 2.249-2 1.795-1.031-.262-2.167.172-3.232.459-.386.11-.816.596-1.212 0" fill="#68B3EB"/></svg>