<svg width="18" height="18" viewBox="0 0 18 18" fill="none" xmlns="http://www.w3.org/2000/svg">
<g id="trash-bin-2-svgrepo-com 1">
<path id="Vector" d="M2.0625 4.625C2.0625 4.27983 2.32153 4.00001 2.64107 4.00001L4.63925 3.99968C5.03626 3.98881 5.38652 3.71612 5.52161 3.31268C5.52516 3.30208 5.52924 3.28899 5.54389 3.24152L5.62999 2.96245C5.68267 2.79134 5.72857 2.64227 5.79281 2.50902C6.04657 1.98262 6.51606 1.61708 7.0586 1.52349C7.19593 1.4998 7.34136 1.4999 7.50832 1.50002H10.1168C10.2838 1.4999 10.4292 1.4998 10.5665 1.52349C11.1091 1.61708 11.5786 1.98262 11.8323 2.50902C11.8966 2.64227 11.9425 2.79134 11.9951 2.96245L12.0812 3.24152C12.0959 3.28899 12.1 3.30208 12.1035 3.31268C12.2387 3.71612 12.6584 3.98915 13.0553 4.00001H14.9839C15.3034 4.00001 15.5625 4.27983 15.5625 4.625C15.5625 4.97018 15.3034 5.25 14.9839 5.25H2.64107C2.32153 5.25 2.0625 4.97018 2.0625 4.625Z" fill="#0079FF"/>
<path id="Vector_2" d="M8.7051 16.5H9.29528C11.3259 16.5 12.3412 16.5 13.0013 15.8526C13.6615 15.2052 13.7291 14.1432 13.8641 12.0193L14.0588 8.95887C14.132 7.8065 14.1687 7.23027 13.8375 6.86514C13.5063 6.5 12.9471 6.5 11.8286 6.5H6.17179C5.05329 6.5 4.49403 6.5 4.16286 6.86514C3.83169 7.23027 3.86833 7.8065 3.94162 8.95887L4.13625 12.0193C4.27133 14.1432 4.33887 15.2052 4.99901 15.8526C5.65915 16.5 6.67446 16.5 8.7051 16.5Z" fill="#0079FF"/>
</g>
</svg>
