<svg width="24" height="24" viewBox="0 0 24 24" fill="none" xmlns="http://www.w3.org/2000/svg">
  <g clip-path="url(#clip0_143_17)">
    <mask id="mask0_143_17" style="mask-type:luminance" maskUnits="userSpaceOnUse" x="0" y="0" width="24" height="24">
      <path d="M22.8194 9.90186H12.2576V14.3594H18.337C17.7702 17.1914 15.4007 18.8179 12.2576 18.8179C11.3696 18.8117 10.4916 18.6303 9.67396 18.284C8.85628 17.9377 8.11505 17.4334 7.49275 16.7999C6.87045 16.1665 6.37936 15.4164 6.04765 14.5927C5.71594 13.769 5.55013 12.8879 5.55975 12C5.55013 11.1121 5.71594 10.231 6.04765 9.40731C6.37936 8.58361 6.87045 7.83351 7.49275 7.20007C8.11505 6.56662 8.85628 6.0623 9.67396 5.71601C10.4916 5.36973 11.3696 5.18831 12.2576 5.18216C13.7843 5.18172 15.2622 5.72011 16.4308 6.70247L19.7281 3.34615C17.68 1.49429 15.0187 0.466644 12.2576 0.461533C10.7545 0.470675 9.26804 0.776878 7.88369 1.3625C6.49935 1.94811 5.24442 2.80161 4.19108 3.87391C3.13773 4.94622 2.30675 6.21616 1.74591 7.61073C1.18508 9.0053 0.905483 10.497 0.923151 12C0.905483 13.503 1.18508 14.9947 1.74591 16.3893C2.30675 17.7839 3.13773 19.0538 4.19108 20.1261C5.24442 21.1984 6.49935 22.0519 7.88369 22.6375C9.26804 23.2231 10.7545 23.5293 12.2576 23.5385C17.9253 23.5385 23.077 19.3431 23.077 12C23.0676 11.2933 22.9812 10.5898 22.8194 9.90186Z" fill="white"/>
    </mask>
    <g mask="url(#mask0_143_17)">
      <path d="M-0.106934 18.8188V5.18214L8.6512 12L-0.106934 18.8188Z" fill="#FBBC05"/>
    </g>
    <mask id="mask1_143_17" style="mask-type:luminance" maskUnits="userSpaceOnUse" x="0" y="0" width="24" height="24">
      <path d="M22.8194 9.90186H12.2576V14.3594H18.337C17.7702 17.1914 15.4007 18.8179 12.2576 18.8179C11.3696 18.8117 10.4916 18.6303 9.67396 18.284C8.85628 17.9377 8.11505 17.4334 7.49275 16.7999C6.87045 16.1665 6.37936 15.4164 6.04765 14.5927C5.71594 13.769 5.55013 12.8879 5.55975 12C5.55013 11.1121 5.71594 10.231 6.04765 9.40731C6.37936 8.58361 6.87045 7.83351 7.49275 7.20007C8.11505 6.56662 8.85628 6.0623 9.67396 5.71601C10.4916 5.36973 11.3696 5.18831 12.2576 5.18216C13.7843 5.18172 15.2622 5.72011 16.4308 6.70247L19.7281 3.34615C17.68 1.49429 15.0187 0.466644 12.2576 0.461533C10.7545 0.470675 9.26804 0.776878 7.88369 1.3625C6.49935 1.94811 5.24442 2.80161 4.19108 3.87391C3.13773 4.94622 2.30675 6.21616 1.74591 7.61073C1.18508 9.0053 0.905483 10.497 0.923151 12C0.905483 13.503 1.18508 14.9947 1.74591 16.3893C2.30675 17.7839 3.13773 19.0538 4.19108 20.1261C5.24442 21.1984 6.49935 22.0519 7.88369 22.6375C9.26804 23.2231 10.7545 23.5293 12.2576 23.5385C17.9253 23.5385 23.077 19.3431 23.077 12C23.0676 11.2933 22.9812 10.5898 22.8194 9.90186Z" fill="white"/>
    </mask>
    <g mask="url(#mask1_143_17)">
      <path d="M-0.106934 5.18215L8.6512 12L12.2577 8.80062L24.6269 6.75508V-0.587082H-0.106934V5.18215Z" fill="#EA4335"/>
      <mask id="mask2_143_17" style="mask-type:luminance" maskUnits="userSpaceOnUse" x="0" y="0" width="24" height="24">
        <path d="M22.8194 9.90186H12.2576V14.3594H18.337C17.7702 17.1914 15.4007 18.8179 12.2576 18.8179C11.3696 18.8117 10.4916 18.6303 9.67396 18.284C8.85628 17.9377 8.11505 17.4334 7.49275 16.7999C6.87045 16.1665 6.37936 15.4164 6.04765 14.5927C5.71594 13.769 5.55013 12.8879 5.55975 12C5.55013 11.1121 5.71594 10.231 6.04765 9.40731C6.37936 8.58361 6.87045 7.83351 7.49275 7.20007C8.11505 6.56662 8.85628 6.0623 9.67396 5.71601C10.4916 5.36973 11.3696 5.18831 12.2576 5.18216C13.7843 5.18172 15.2622 5.72011 16.4308 6.70247L19.7281 3.34615C17.68 1.49429 15.0187 0.466644 12.2576 0.461533C10.7545 0.470675 9.26804 0.776878 7.88369 1.3625C6.49935 1.94811 5.24442 2.80161 4.19108 3.87391C3.13773 4.94622 2.30675 6.21616 1.74591 7.61073C1.18508 9.0053 0.905483 10.497 0.923151 12C0.905483 13.503 1.18508 14.9947 1.74591 16.3893C2.30675 17.7839 3.13773 19.0538 4.19108 20.1261C5.24442 21.1984 6.49935 22.0519 7.88369 22.6375C9.26804 23.2231 10.7545 23.5293 12.2576 23.5385C17.9253 23.5385 23.077 19.3431 23.077 12C23.0676 11.2933 22.9812 10.5898 22.8194 9.90186Z" fill="white"/>
      </mask>
      <g mask="url(#mask2_143_17)">
        <path d="M-0.106934 18.8188L15.3491 6.75601L19.4189 7.28031L24.6223 -0.587082V24.588H-0.106934V18.8188Z" fill="#34A853"/>
      </g>
      <mask id="mask3_143_17" style="mask-type:luminance" maskUnits="userSpaceOnUse" x="0" y="0" width="24" height="24">
        <path d="M22.8194 9.90186H12.2576V14.3594H18.337C17.7702 17.1914 15.4007 18.8179 12.2576 18.8179C11.3696 18.8117 10.4916 18.6303 9.67396 18.284C8.85628 17.9377 8.11505 17.4334 7.49275 16.7999C6.87045 16.1665 6.37936 15.4164 6.04765 14.5927C5.71594 13.769 5.55013 12.8879 5.55975 12C5.55013 11.1121 5.71594 10.231 6.04765 9.40731C6.37936 8.58361 6.87045 7.83351 7.49275 7.20007C8.11505 6.56662 8.85628 6.0623 9.67396 5.71601C10.4916 5.36973 11.3696 5.18831 12.2576 5.18216C13.7843 5.18172 15.2622 5.72011 16.4308 6.70247L19.7281 3.34615C17.68 1.49429 15.0187 0.466644 12.2576 0.461533C10.7545 0.470675 9.26804 0.776878 7.88369 1.3625C6.49935 1.94811 5.24442 2.80161 4.19108 3.87391C3.13773 4.94622 2.30675 6.21616 1.74591 7.61073C1.18508 9.0053 0.905483 10.497 0.923151 12C0.905483 13.503 1.18508 14.9947 1.74591 16.3893C2.30675 17.7839 3.13773 19.0538 4.19108 20.1261C5.24442 21.1984 6.49935 22.0519 7.88369 22.6375C9.26804 23.2231 10.7545 23.5293 12.2576 23.5385C17.9253 23.5385 23.077 19.3431 23.077 12C23.0676 11.2933 22.9812 10.5898 22.8194 9.90186Z" fill="white"/>
      </mask>
      <g mask="url(#mask3_143_17)">
        <path d="M24.6232 24.588L8.65401 12.0009L6.59277 10.4317L24.6251 5.18677L24.6232 24.588Z" fill="#4285F4"/>
      </g>
    </g>
  </g>
  <defs>
    <clipPath id="clip0_143_17">
      <rect width="24" height="24" fill="white"/>
    </clipPath>
  </defs>
</svg>
