<svg width="18" height="19" viewBox="0 0 18 19" fill="none" xmlns="http://www.w3.org/2000/svg">
<g id="check-circle-svgrepo-com(2) 1">
<path id="Vector" fill-rule="evenodd" clip-rule="evenodd" d="M16.5 9.5C16.5 13.6421 13.1421 17 9 17C4.85786 17 1.5 13.6421 1.5 9.5C1.5 5.35786 4.85786 2 9 2C13.1421 2 16.5 5.35786 16.5 9.5ZM12.0227 7.22725C12.2424 7.44692 12.2424 7.80308 12.0227 8.02272L8.27272 11.7727C8.05305 11.9924 7.69695 11.9924 7.47725 11.7727L5.97725 10.2727C5.75758 10.053 5.75758 9.69695 5.97725 9.47727C6.19692 9.2576 6.55308 9.2576 6.77275 9.47727L7.875 10.5795L9.5511 8.90337L11.2273 7.22725C11.4469 7.00758 11.803 7.00758 12.0227 7.22725Z" fill="#1E9400"/>
</g>
</svg>
