<svg width="18" height="19" viewBox="0 0 18 19" fill="none" xmlns="http://www.w3.org/2000/svg">
<g id="users-group-two-rounded-svgrepo-com(1) 1">
<path id="Vector" d="M11.625 6.125C11.625 7.57475 10.4497 8.75 9 8.75C7.55025 8.75 6.375 7.57475 6.375 6.125C6.375 4.67525 7.55025 3.5 9 3.5C10.4497 3.5 11.625 4.67525 11.625 6.125Z" fill="#0079FF"/>
<path id="Vector_2" d="M13.5 12.875C13.5 14.3247 11.4853 15.5 9 15.5C6.51472 15.5 4.5 14.3247 4.5 12.875C4.5 11.4253 6.51472 10.25 9 10.25C11.4853 10.25 13.5 11.4253 13.5 12.875Z" fill="#0079FF"/>
<path id="Vector_3" d="M5.34143 4.25C5.47452 4.25 5.60446 4.26306 5.72993 4.28792C5.42426 4.83084 5.24989 5.45756 5.24989 6.125C5.24989 6.77619 5.41587 7.38862 5.70783 7.92227C5.58923 7.94437 5.46673 7.95595 5.34143 7.95595C4.28061 7.95595 3.42065 7.12634 3.42065 6.10297C3.42065 5.07961 4.28061 4.25 5.34143 4.25Z" fill="#0079FF"/>
<path id="Vector_4" d="M4.08551 14.7396C3.65956 14.2304 3.375 13.6056 3.375 12.8751C3.375 12.1669 3.64243 11.5581 4.04683 11.0576C2.61832 11.1685 1.5 11.9497 1.5 12.8971C1.5 13.8534 2.63797 14.6404 4.08551 14.7396Z" fill="#0079FF"/>
<path id="Vector_5" d="M12.75 6.125C12.75 6.77619 12.584 7.38862 12.2921 7.92227C12.4107 7.94437 12.5332 7.95595 12.6585 7.95595C13.7193 7.95595 14.5793 7.12634 14.5793 6.10297C14.5793 5.07961 13.7193 4.25 12.6585 4.25C12.5254 4.25 12.3955 4.26306 12.27 4.28792C12.5756 4.83084 12.75 5.45756 12.75 6.125Z" fill="#0079FF"/>
<path id="Vector_6" d="M13.9146 14.7396C15.3621 14.6404 16.5 13.8534 16.5 12.8971C16.5 11.9497 15.3817 11.1685 13.9532 11.0576C14.3576 11.5581 14.625 12.1669 14.625 12.8751C14.625 13.6056 14.3405 14.2304 13.9146 14.7396Z" fill="#0079FF"/>
</g>
</svg>
