<svg xmlns="http://www.w3.org/2000/svg" viewBox="0 0 24 24" fill="none">
    <g id="SVGRepo_iconCarrier">
        <path fill-rule="evenodd" clip-rule="evenodd" d="M4.65874 23.5158H4.35294C3.24375 23.5158 2.68917 23.5158 2.34458 23.1712C2 22.8266 2 22.272 2 21.1628V19.8546C2 19.2446 2 18.9397 2.15668 18.6673C2.31337 18.3948 2.54973 18.2574 3.02247 17.9825C6.13479 16.1722 10.5547 15.1533 13.5048 16.9128C13.7029 17.0311 13.8813 17.1738 14.0335 17.3448C14.6901 18.0824 14.6424 19.1954 13.8857 19.8559C13.7258 19.9953 13.5555 20.1012 13.384 20.1379C13.5249 20.1215 13.66 20.1028 13.7889 20.0822C14.8612 19.9112 15.7612 19.3382 16.5852 18.7158L18.7113 17.1098C19.4608 16.5435 20.5733 16.5434 21.3229 17.1094C21.9979 17.6191 22.2042 18.4581 21.7775 19.142C21.28 19.9397 20.5789 20.96 19.9058 21.5834C19.2317 22.2078 18.2281 22.7652 17.4088 23.1606C16.5012 23.5987 15.4986 23.8511 14.4787 24.0163C12.4104 24.351 10.2548 24.2999 8.20745 23.8781C7.05004 23.6397 5.84799 23.5158 4.65874 23.5158Z" fill="#808080"/>
        <g opacity="0.5">
            <path fill-rule="evenodd" clip-rule="evenodd" d="M16.6337 9.40673L14.5868 7.01533C14.3585 6.74851 14.3908 6.34886 14.6591 6.12259L16.8551 4.26766C17.1231 4.04113 17.4553 3.88314 17.5967 3.91513C17.7381 3.94654 18.0507 3.76801 18.2949 3.51605L18.7874 3.00783C19.0317 2.75588 19.0677 2.3516 18.8677 2.10595C18.6677 1.85972 18.2666 1.81487 17.9721 2.00537L17.3802 2.38816C17.0854 2.57872 16.8462 2.84065 16.8462 2.97354C16.8462 3.10637 16.6291 3.39751 16.3611 3.6243L14.1342 5.51006C13.8662 5.73659 13.464 5.7046 13.2357 5.43778L12.573 4.66359C12.3447 4.39677 12.3064 3.97511 12.4684 3.70913C12.6301 3.44315 12.9052 2.96293 12.9061 2.61186C12.9069 2.1902 12.7098 1.58282 11.8716 0.898645C10.9567 0.151024 10.14 0.0142004 9.61141 0.0330563C9.26061 0.0453469 9.16916 0.364743 9.3926 0.635554L10.5096 1.98909C10.733 2.2599 10.7259 2.69301 10.4936 2.95641L10.4693 2.98415C10.2373 3.24724 9.80654 3.60923 9.50715 3.7929L9.4957 3.79978C9.19632 3.9832 8.7652 3.91833 8.53295 3.65524L7.37144 2.33963C7.13918 2.07654 6.80949 2.11651 6.74236 2.46106C6.66038 2.87989 6.64924 3.50008 6.96007 4.26026C7.09291 4.58506 7.3789 5.08099 7.60002 5.35354C8.02741 5.88035 8.44623 6.06885 8.77188 6.12001C9.11843 6.17458 9.61519 5.98461 9.87828 5.87835C10.1417 5.7721 10.5276 5.89348 10.7482 6.16686L11.4084 6.98534C11.6287 7.25846 11.6735 7.59356 11.5084 7.73322C11.3433 7.8732 11.0276 7.76752 10.8033 7.49755L10.773 7.46099C10.5491 7.19102 10.296 6.97189 10.2082 6.97189C10.1205 6.97189 10.0562 7.25641 10.0648 7.60753L10.0694 7.80465C10.078 8.15577 9.80801 8.38856 9.46692 8.32516C9.12552 8.26177 8.62901 8.39087 8.35794 8.61367L5.4911 10.9665C5.21997 11.1894 5 11.5636 5 11.8024C5 12.0416 5.17769 12.4572 5.39708 12.7315L5.94443 13.4157C6.16382 13.6899 6.53122 13.9359 6.76516 13.965C6.99915 13.9948 7.40737 13.8362 7.67734 13.6117L10.5493 11.2203C10.8189 10.9957 11.0489 10.5295 11.0626 10.1787L11.0658 10.0987C11.0795 9.74755 11.3683 9.52533 11.7111 9.60159L11.7415 9.60789C12.0843 9.68416 12.362 9.66304 12.362 9.56078C12.362 9.45852 12.2188 9.20252 12.0417 8.98943C11.8649 8.7766 11.8537 8.49234 12.0166 8.35463C12.1794 8.21691 12.4902 8.32663 12.7108 8.59976L14.6237 10.9718C14.844 11.2449 15.0005 11.5617 14.987 11.6814C14.9791 11.7531 14.9748 11.8257 14.9748 11.8994C14.9748 13.0113 15.8758 13.912 16.9873 13.912C18.0989 13.912 18.9999 13.0113 18.9999 11.8994C18.9999 11.0272 18.4449 10.2862 17.6687 10.0073C17.3388 9.88837 16.862 9.67355 16.6337 9.40673ZM16.9874 12.9852C16.3877 12.9852 15.9018 12.4989 15.9018 11.8993C15.9018 11.2996 16.3878 10.8134 16.9874 10.8134C17.5873 10.8134 18.0733 11.2996 18.0733 11.8993C18.0732 12.4989 17.5873 12.9852 16.9874 12.9852Z" fill="#808080"/>
        </g>
    </g>
</svg>