<svg width="24" height="24" viewBox="0 0 24 24" fill="none" xmlns="http://www.w3.org/2000/svg">
<path fill-rule="evenodd" clip-rule="evenodd" d="M10.5303 18.5303C10.8232 18.2374 10.8232 17.7626 10.5303 17.4697L5.8107 12.75H14.5C14.9142 12.75 15.25 12.4142 15.25 12C15.25 11.5858 14.9142 11.25 14.5 11.25H5.8107L10.5303 6.53033C10.8232 6.23744 10.8232 5.76256 10.5303 5.46967C10.2374 5.17678 9.7626 5.17678 9.4697 5.46967L3.4697 11.4697C3.1768 11.7626 3.1768 12.2374 3.4697 12.5303L9.4697 18.5303C9.7626 18.8232 10.2374 18.8232 10.5303 18.5303ZM16.75 12C16.75 12.4142 17.0858 12.75 17.5 12.75H20C20.4142 12.75 20.75 12.4142 20.75 12C20.75 11.5858 20.4142 11.25 20 11.25H17.5C17.0858 11.25 16.75 11.5858 16.75 12Z" fill="#8B8B8B"/>
</svg>
