<svg width="20" height="20" viewBox="0 0 20 20" fill="none" xmlns="http://www.w3.org/2000/svg">
<path fill-rule="evenodd" clip-rule="evenodd" d="M0 10C0 10.3853 0.31236 10.6977 0.69767 10.6977H2.59041C2.92078 14.2509 5.74914 17.0792 9.3023 17.4096V19.3023C9.3023 19.6876 9.6147 20 10 20C10.3853 20 10.6977 19.6876 10.6977 19.3023V17.4096C14.2509 17.0792 17.0792 14.2509 17.4096 10.6977H19.3023C19.6876 10.6977 20 10.3853 20 10C20 9.6147 19.6876 9.3023 19.3023 9.3023H17.4096C17.0792 5.74914 14.2509 2.92078 10.6977 2.59041V0.69767C10.6977 0.31236 10.3853 0 10 0C9.6147 0 9.3023 0.31236 9.3023 0.69767V2.59041C5.74914 2.92078 2.92078 5.74914 2.59041 9.3023H0.69767C0.31236 9.3023 0 9.6147 0 10ZM6.51163 10C6.51163 8.0734 8.0734 6.51163 10 6.51163C11.9266 6.51163 13.4884 8.0734 13.4884 10C13.4884 11.9266 11.9266 13.4884 10 13.4884C8.0734 13.4884 6.51163 11.9266 6.51163 10Z" fill="#0079FF"/>
</svg>
