<svg width="18" height="19" viewBox="0 0 18 19" fill="none" xmlns="http://www.w3.org/2000/svg">
<path d="M17.7825 0.681797C17.6813 0.581052 17.5534 0.5113 17.4139 0.480742C17.2744 0.450184 17.1291 0.460091 16.995 0.509297L0.495001 6.5093C0.352702 6.56327 0.230191 6.65926 0.143739 6.78451C0.0572872 6.90977 0.0109863 7.05836 0.0109863 7.21055C0.0109863 7.36274 0.0572872 7.51133 0.143739 7.63658C0.230191 7.76183 0.352702 7.85782 0.495001 7.9118L6.9375 10.4843L11.6925 5.7143L12.75 6.7718L7.9725 11.5493L10.5525 17.9918C10.6081 18.1313 10.7043 18.251 10.8286 18.3352C10.953 18.4195 11.0998 18.4644 11.25 18.4643C11.4016 18.4612 11.5486 18.4122 11.6718 18.3239C11.795 18.2355 11.8885 18.1119 11.94 17.9693L17.94 1.4693C17.9911 1.3366 18.0034 1.19212 17.9755 1.05269C17.9477 0.91326 17.8807 0.78463 17.7825 0.681797Z" fill="#C09551"/>
</svg>
