<svg width="225" height="52" viewBox="0 0 225 52" fill="none" xmlns="http://www.w3.org/2000/svg">
<g clip-path="url(#clip0_2636_1487)">
<mask id="mask0_2636_1487" style="mask-type:luminance" maskUnits="userSpaceOnUse" x="5" y="0" width="53" height="52">
<path d="M57.9382 0H5.93817V52H57.9382V0Z" fill="white"/>
</mask>
<g mask="url(#mask0_2636_1487)">
<path d="M57.9382 9.9292V42.0706C57.9382 47.5544 53.4927 51.9998 48.0089 51.9998H15.8674C10.3836 51.9998 5.93817 47.5544 5.93817 42.0706V9.9292C5.93817 4.44542 10.3836 -0.000244141 15.8674 -0.000244141H48.0089C53.4927 -0.000244141 57.9382 4.44542 57.9382 9.9292Z" fill="url(#paint0_linear_2636_1487)"/>
<path d="M37.9086 27.8576C38.2103 26.8033 38.2103 25.6855 37.9086 24.6313H40.4386C40.521 24.6316 40.6026 24.6157 40.6788 24.5843C40.755 24.5529 40.8242 24.5068 40.8825 24.4485C40.9408 24.3902 40.9869 24.321 41.0183 24.2448C41.0497 24.1686 41.0657 24.087 41.0653 24.0046C41.069 23.9494 41.0611 23.8941 41.0421 23.8421C39.7191 18.9214 34.6591 15.9969 29.7383 17.3199C24.7944 18.6429 21.8931 23.7029 23.216 28.6236C23.7428 30.5838 24.9021 32.3152 26.5137 33.5491C28.1254 34.783 30.0993 35.4504 32.1291 35.4475H37.073C37.2103 35.4469 37.3464 35.4736 37.4734 35.5258C37.6003 35.5781 37.7157 35.655 37.8128 35.7521C37.9099 35.8492 37.9868 35.9646 38.0391 36.0916C38.0914 36.2186 38.1181 36.3546 38.1175 36.492V37.6525C38.1181 37.7898 38.0914 37.9259 38.0391 38.0529C37.9869 38.1799 37.9099 38.2953 37.8128 38.3924C37.7157 38.4895 37.6004 38.5664 37.4734 38.6187C37.3464 38.671 37.2103 38.6976 37.073 38.697H32.0362C25.1889 38.697 19.6647 33.1497 19.6647 26.3023V26.1632C19.6879 19.2696 25.2817 13.7222 32.1522 13.7222C39.0459 13.7455 44.5933 19.3392 44.5701 26.2096C44.574 26.4265 44.5663 26.6435 44.5469 26.8595C44.535 27.1223 44.4222 27.3703 44.2319 27.5519C44.0417 27.7335 43.7887 27.8347 43.5257 27.8344L37.9086 27.8576Z" fill="white"/>
<path d="M38.2799 26.2326C38.2799 29.5518 35.5873 32.2442 32.2682 32.2442C31.3345 32.2449 30.4136 32.0269 29.5793 31.6077C28.745 31.1885 28.0204 30.5798 27.4636 29.8303C27.3011 29.5982 27.3475 29.2732 27.5564 29.1108C27.6446 29.0488 27.7502 29.0163 27.858 29.018H31.7808L32.7093 28.0896V24.3759L31.7808 23.4475H27.8349C27.6999 23.4463 27.5707 23.3921 27.4752 23.2966C27.3797 23.2011 27.3255 23.0719 27.3243 22.9369C27.3243 22.8208 27.3707 22.728 27.4171 22.6352C29.3902 19.966 33.1503 19.4321 35.8195 21.405C37.3979 22.5424 38.2799 24.3296 38.2799 26.2329" fill="white"/>
<path d="M42.5875 35.5449C43.1229 35.5453 43.6363 35.7582 44.015 36.1368C44.3936 36.5154 44.6065 37.0288 44.6069 37.5643V37.9588C44.6081 38.0567 44.5898 38.1539 44.5529 38.2446C44.5161 38.3353 44.4614 38.4177 44.3922 38.4869C44.3229 38.5561 44.2406 38.6108 44.1499 38.6476C44.0592 38.6845 43.962 38.7029 43.8641 38.7016H41.3109C41.213 38.7029 41.1158 38.6845 41.0251 38.6476C40.9344 38.6108 40.852 38.5561 40.7828 38.4869C40.7136 38.4177 40.6589 38.3353 40.622 38.2446C40.5852 38.1539 40.5668 38.0567 40.5681 37.9588V37.5643C40.5685 37.0288 40.7814 36.5154 41.16 36.1368C41.5386 35.7582 42.052 35.5453 42.5875 35.5449Z" fill="white"/>
<path d="M42.5837 32.4116C42.8447 32.4116 43.0998 32.4889 43.3169 32.6339C43.5339 32.7788 43.7031 32.9849 43.803 33.226C43.9029 33.4671 43.9291 33.7325 43.8782 33.9885C43.8274 34.2444 43.7017 34.4796 43.5172 34.6642C43.3326 34.8488 43.0975 34.9745 42.8415 35.0254C42.5855 35.0764 42.3202 35.0502 42.0791 34.9504C41.8379 34.8505 41.6318 34.6814 41.4868 34.4644C41.3418 34.2474 41.2644 33.9922 41.2644 33.7312C41.2412 33.0136 41.843 32.4116 42.5837 32.4116Z" fill="white"/>
</g>
</g>
<path d="M82.5478 21.1529L85.5387 24.2078C84.0594 25.7512 81.1978 26.7804 78.7539 26.7804C77.5927 26.8158 76.4364 26.6142 75.3557 26.188C74.275 25.7618 73.2924 25.1199 72.4679 24.3015C71.6434 23.483 70.9943 22.5052 70.5602 21.4277C70.126 20.3501 69.916 19.1954 69.9427 18.034C69.9051 16.896 70.0999 15.7623 70.5152 14.7022C70.9305 13.6421 71.5576 12.6778 72.3582 11.8682C73.1588 11.0586 74.116 10.4207 75.1714 9.99359C76.2268 9.56644 77.3582 9.35896 78.4965 9.38383C83.7064 9.38383 86.7632 13.3388 86.7632 19.6096H74.7672C74.9944 20.4827 75.5073 21.2547 76.2241 21.8025C76.941 22.3503 77.8206 22.6424 78.7228 22.6322C80.1317 22.6022 81.4853 22.0787 82.5478 21.1529ZM74.8306 16.2333H82.2588C82.0786 15.4341 81.6213 14.7244 80.9679 14.23C80.3146 13.7356 79.5074 13.4883 78.6892 13.532C77.8436 13.5189 77.0154 13.7729 76.3226 14.258C75.6297 14.743 75.1076 15.4342 74.8306 16.2333Z" fill="#212121"/>
<path d="M90.2643 4.30322H98.1749C105.603 4.30322 110.876 8.86914 110.876 15.3327C110.876 21.7962 105.602 26.3963 98.1749 26.3963H90.2643V4.30322ZM98.7858 22.0858C102.998 22.0858 105.989 19.2888 105.989 15.3333C105.989 11.41 102.999 8.61243 98.7858 8.61243H94.9944V22.0858H98.7858Z" fill="#212121"/>
<path d="M126.086 21.1529L129.077 24.2078C127.597 25.7512 124.736 26.7804 122.292 26.7804C121.13 26.8158 119.974 26.6142 118.894 26.188C117.813 25.7618 116.83 25.1199 116.006 24.3015C115.181 23.483 114.532 22.5052 114.098 21.4277C113.664 20.3501 113.454 19.1954 113.481 18.034C113.443 16.896 113.638 15.7623 114.053 14.7022C114.468 13.6421 115.095 12.6778 115.896 11.8682C116.697 11.0586 117.654 10.4207 118.709 9.99359C119.765 9.56644 120.896 9.35896 122.034 9.38383C127.244 9.38383 130.301 13.3388 130.301 19.6096H118.305C118.532 20.483 119.044 21.2552 119.761 21.8031C120.478 22.351 121.358 22.6429 122.26 22.6322C123.669 22.6024 125.023 22.0789 126.086 21.1529ZM118.369 16.2333H125.797C125.617 15.4342 125.16 14.7246 124.507 14.2302C123.853 13.7358 123.046 13.4885 122.228 13.532C121.382 13.5186 120.554 13.7725 119.861 14.2576C119.168 14.7426 118.646 15.434 118.369 16.2333Z" fill="#212121"/>
<path d="M159.398 15.815V26.4267H154.897V16.6193C154.897 14.6925 153.675 13.3393 151.938 13.3393C151.525 13.3111 151.11 13.3685 150.72 13.5078C150.33 13.6472 149.973 13.8656 149.671 14.1493C149.369 14.433 149.129 14.776 148.966 15.1567C148.803 15.5374 148.72 15.9477 148.723 16.3619V26.4267H144.221V16.6193C144.221 14.6925 142.999 13.3393 141.294 13.3393C139.397 13.3393 138.079 14.5936 138.079 16.3619V26.395H133.383V9.76975H138.079V11.9564C138.51 11.1469 139.162 10.476 139.958 10.0208C140.755 9.56565 141.664 9.34483 142.58 9.38379C143.651 9.36298 144.707 9.63313 145.636 10.1655C146.564 10.6978 147.331 11.4723 147.854 12.4064C148.725 10.5734 150.781 9.38379 153.256 9.38379C156.729 9.38379 159.398 12.0527 159.398 15.815Z" fill="#212121"/>
<path d="M178.08 16.4598V26.3959H173.547V24.7239C172.919 25.3861 172.16 25.9109 171.318 26.2651C170.477 26.6193 169.572 26.7953 168.659 26.7819C165.122 26.7819 162.388 24.6593 162.388 21.4757C162.388 18.1958 165.443 15.9439 169.302 15.9439C170.756 15.963 172.194 16.2463 173.547 16.7799V16.4598C173.547 14.6908 172.453 13.1475 169.721 13.1475C168.21 13.1958 166.733 13.6037 165.411 14.3372L163.836 11.2182C165.972 10.063 168.353 9.43461 170.782 9.38525C175.122 9.38401 178.08 12.117 178.08 16.4598ZM173.547 21.1543V19.611C172.401 19.2025 171.193 18.9958 169.977 19C168.273 19 166.922 19.9945 166.922 21.3477C166.922 22.7008 168.112 23.5343 169.719 23.5343C171.521 23.5324 173.225 22.6964 173.547 21.1531V21.1543Z" fill="#212121"/>
<path d="M197.823 15.8151V26.3945H193.289V16.8121C193.289 14.7541 192.003 13.3394 190.138 13.3394C189.697 13.3174 189.257 13.3837 188.843 13.5342C188.428 13.6848 188.048 13.9168 187.725 14.2164C187.401 14.516 187.141 14.8772 186.959 15.2789C186.777 15.6806 186.677 16.1146 186.665 16.5554L186.633 16.459V26.3951H181.938V9.76988H186.633V11.8601C187.2 11.066 187.955 10.4244 188.83 9.99241C189.706 9.5604 190.674 9.35137 191.65 9.38391C195.251 9.38391 197.823 12.0528 197.823 15.8151Z" fill="#212121"/>
<path d="M218.885 3.91724V26.3944H214.191V24.0151C213.545 24.8875 212.701 25.5934 211.728 26.0743C210.755 26.5552 209.682 26.7973 208.597 26.7804C204.159 26.7804 200.944 23.1791 200.944 18.0656C200.944 12.9851 204.159 9.38317 208.597 9.38317C209.682 9.36632 210.755 9.60841 211.728 10.0893C212.701 10.5702 213.545 11.2761 214.191 12.1485V3.91724H218.885ZM214.191 18.0663C214.191 15.301 212.422 13.3393 209.946 13.3393C207.342 13.3393 205.508 15.301 205.508 18.0663C205.508 20.8633 207.341 22.8255 209.946 22.8255C212.422 22.8249 214.191 20.8639 214.191 18.0663Z" fill="#212121"/>
<path d="M71.2509 48.9998V37.8864H72.4443V42.8837H78.4112V37.8864H79.6046V48.9998H78.4112V44.0025H72.4443V48.9998H71.2509ZM85.815 49.1788C85.0592 49.1788 84.373 48.9998 83.7564 48.6417C83.1399 48.2738 82.6476 47.7765 82.2796 47.15C81.9216 46.5135 81.7426 45.7925 81.7426 44.987C81.7426 44.1914 81.9216 43.4804 82.2796 42.8538C82.6377 42.2273 83.12 41.7351 83.7266 41.377C84.3432 41.0091 85.0393 40.8251 85.815 40.8251C86.5907 40.8251 87.2819 41.0041 87.8885 41.3621C88.5051 41.7201 88.9874 42.2124 89.3355 42.8389C89.6935 43.4655 89.8725 44.1815 89.8725 44.987C89.8725 45.8025 89.6885 46.5285 89.3206 47.1649C88.9526 47.7915 88.4604 48.2837 87.8438 48.6417C87.2371 48.9998 86.5609 49.1788 85.815 49.1788ZM85.815 48.06C86.352 48.06 86.8344 47.9257 87.262 47.6572C87.6996 47.3887 88.0427 47.0207 88.2913 46.5533C88.5499 46.0859 88.6791 45.5638 88.6791 44.987C88.6791 44.4102 88.5499 43.8931 88.2913 43.4356C88.0427 42.9782 87.6996 42.6152 87.262 42.3467C86.8344 42.0781 86.352 41.9439 85.815 41.9439C85.278 41.9439 84.7907 42.0781 84.3531 42.3467C83.9255 42.6152 83.5824 42.9782 83.3238 43.4356C83.0653 43.8931 82.936 44.4102 82.936 44.987C82.936 45.5638 83.0653 46.0859 83.3238 46.5533C83.5824 47.0207 83.9255 47.3887 84.3531 47.6572C84.7907 47.9257 85.278 48.06 85.815 48.06ZM91.8457 48.9998V41.0041H92.9645V41.9886C93.2031 41.6207 93.5164 41.3373 93.9043 41.1384C94.3021 40.9295 94.7297 40.8251 95.1871 40.8251C95.7341 40.8251 96.2363 40.9643 96.6938 41.2428C97.1513 41.5212 97.5043 41.8892 97.7529 42.3467C97.9916 41.8494 98.3347 41.4715 98.7822 41.2129C99.2397 40.9544 99.7369 40.8251 100.274 40.8251C100.811 40.8251 101.303 40.9544 101.751 41.2129C102.208 41.4715 102.571 41.8295 102.84 42.287C103.118 42.7345 103.257 43.2417 103.257 43.8086V48.9998H102.139V44.2412C102.139 43.5152 101.95 42.9533 101.572 42.5555C101.194 42.1478 100.716 41.9439 100.14 41.9439C99.5629 41.9439 99.0805 42.1478 98.6927 42.5555C98.3049 42.9632 98.1109 43.5251 98.1109 44.2412V48.9998H96.9921V44.2412C96.9921 43.5152 96.8032 42.9533 96.4253 42.5555C96.0474 42.1478 95.57 41.9439 94.9932 41.9439C94.4164 41.9439 93.9341 42.1478 93.5462 42.5555C93.1584 42.9632 92.9645 43.5251 92.9645 44.2412V48.9998H91.8457ZM109.033 49.1788C108.288 49.1788 107.611 48.9998 107.005 48.6417C106.408 48.2738 105.936 47.7716 105.588 47.1351C105.239 46.4986 105.065 45.7776 105.065 44.9721C105.065 44.1666 105.234 43.4555 105.573 42.8389C105.911 42.2124 106.368 41.7201 106.945 41.3621C107.532 41.0041 108.188 40.8251 108.914 40.8251C109.491 40.8251 110.003 40.9345 110.451 41.1533C110.908 41.3621 111.296 41.6505 111.614 42.0185C111.932 42.3765 112.176 42.7842 112.345 43.2417C112.514 43.6892 112.599 44.1516 112.599 44.629C112.599 44.7284 112.594 44.8428 112.584 44.9721C112.574 45.0914 112.559 45.2157 112.539 45.345H106.244C106.264 45.9218 106.403 46.4191 106.662 46.8368C106.93 47.2445 107.273 47.5627 107.691 47.7915C108.109 48.0202 108.556 48.1346 109.033 48.1346C109.62 48.1346 110.112 47.9953 110.51 47.7169C110.908 47.4384 111.231 47.0903 111.48 46.6727L112.435 47.1799C112.275 47.5379 112.032 47.871 111.704 48.1793C111.375 48.4777 110.983 48.7213 110.525 48.9103C110.078 49.0893 109.58 49.1788 109.033 49.1788ZM108.914 41.8693C108.476 41.8693 108.069 41.9688 107.691 42.1677C107.313 42.3665 106.995 42.65 106.736 43.0179C106.488 43.3759 106.333 43.8036 106.274 44.3008H111.39C111.38 43.8235 111.261 43.4058 111.032 43.0478C110.814 42.6798 110.515 42.3914 110.137 42.1826C109.769 41.9737 109.362 41.8693 108.914 41.8693ZM119.881 49.1788C119.115 49.1788 118.444 48.9848 117.867 48.597C117.29 48.2091 116.872 47.6821 116.614 47.0158L117.553 46.5682C117.782 47.0555 118.1 47.4434 118.508 47.7318C118.926 48.0202 119.383 48.1644 119.881 48.1644C120.358 48.1644 120.761 48.05 121.089 47.8213C121.417 47.5826 121.581 47.2743 121.581 46.8964C121.581 46.618 121.502 46.3992 121.342 46.2401C121.183 46.071 120.999 45.9417 120.791 45.8522C120.582 45.7627 120.398 45.6981 120.239 45.6583L119.09 45.3301C118.354 45.1213 117.822 44.8279 117.494 44.45C117.166 44.0721 117.002 43.6345 117.002 43.1373C117.002 42.6699 117.121 42.2621 117.36 41.9141C117.598 41.566 117.921 41.2975 118.329 41.1085C118.737 40.9196 119.189 40.8251 119.687 40.8251C120.363 40.8251 120.974 41.0041 121.521 41.3621C122.078 41.7102 122.471 42.1975 122.7 42.824L121.745 43.2715C121.546 42.824 121.258 42.4759 120.88 42.2273C120.512 41.9688 120.099 41.8395 119.642 41.8395C119.194 41.8395 118.836 41.9538 118.568 42.1826C118.299 42.4113 118.165 42.6997 118.165 43.0478C118.165 43.3163 118.235 43.5301 118.374 43.6892C118.513 43.8483 118.672 43.9677 118.851 44.0472C119.04 44.1268 119.204 44.1865 119.344 44.2262L120.671 44.6141C121.318 44.803 121.82 45.0964 122.178 45.4942C122.546 45.892 122.73 46.3594 122.73 46.8964C122.73 47.334 122.605 47.7268 122.357 48.0749C122.118 48.423 121.785 48.6964 121.357 48.8953C120.93 49.0843 120.437 49.1788 119.881 49.1788ZM128.336 49.1788C127.59 49.1788 126.913 48.9998 126.307 48.6417C125.71 48.2738 125.238 47.7716 124.89 47.1351C124.542 46.4986 124.368 45.7776 124.368 44.9721C124.368 44.1666 124.537 43.4555 124.875 42.8389C125.213 42.2124 125.67 41.7201 126.247 41.3621C126.834 41.0041 127.49 40.8251 128.216 40.8251C128.793 40.8251 129.305 40.9345 129.753 41.1533C130.21 41.3621 130.598 41.6505 130.916 42.0185C131.234 42.3765 131.478 42.7842 131.647 43.2417C131.816 43.6892 131.901 44.1516 131.901 44.629C131.901 44.7284 131.896 44.8428 131.886 44.9721C131.876 45.0914 131.861 45.2157 131.841 45.345H125.546C125.566 45.9218 125.705 46.4191 125.964 46.8368C126.232 47.2445 126.575 47.5627 126.993 47.7915C127.411 48.0202 127.858 48.1346 128.336 48.1346C128.922 48.1346 129.415 47.9953 129.812 47.7169C130.21 47.4384 130.533 47.0903 130.782 46.6727L131.737 47.1799C131.578 47.5379 131.334 47.871 131.006 48.1793C130.678 48.4777 130.285 48.7213 129.827 48.9103C129.38 49.0893 128.882 49.1788 128.336 49.1788ZM128.216 41.8693C127.779 41.8693 127.371 41.9688 126.993 42.1677C126.615 42.3665 126.297 42.65 126.038 43.0179C125.79 43.3759 125.635 43.8036 125.576 44.3008H130.692C130.682 43.8235 130.563 43.4058 130.334 43.0478C130.116 42.6798 129.817 42.3914 129.439 42.1826C129.071 41.9737 128.664 41.8693 128.216 41.8693ZM133.873 48.9998V41.0041H134.992V41.8693C135.201 41.561 135.479 41.3223 135.827 41.1533C136.185 40.9842 136.608 40.8997 137.095 40.8997H137.603V42.0185H136.902C136.325 42.0185 135.862 42.1975 135.514 42.5555C135.166 42.9135 134.992 43.4207 134.992 44.0771V48.9998H133.873ZM141.047 48.9998L137.929 41.0041H139.182L141.614 47.4782L144.045 41.0041H145.313L142.166 48.9998H141.047ZM146.62 39.5273V37.8864H147.739V39.5273H146.62ZM146.62 48.9998V41.0041H147.739V48.9998H146.62ZM153.684 49.1788C152.898 49.1788 152.207 48.9948 151.61 48.6268C151.013 48.2589 150.546 47.7616 150.208 47.1351C149.87 46.4986 149.701 45.7826 149.701 44.987C149.701 44.1914 149.87 43.4804 150.208 42.8538C150.546 42.2273 151.013 41.7351 151.61 41.377C152.207 41.0091 152.898 40.8251 153.684 40.8251C154.181 40.8251 154.648 40.9146 155.086 41.0936C155.523 41.2726 155.911 41.5163 156.249 41.8246C156.587 42.1229 156.841 42.471 157.01 42.8688L155.996 43.3909C155.797 42.9632 155.493 42.6152 155.086 42.3467C154.678 42.0781 154.211 41.9439 153.684 41.9439C153.156 41.9439 152.679 42.0781 152.251 42.3467C151.834 42.6052 151.501 42.9682 151.252 43.4356C151.013 43.8931 150.894 44.4152 150.894 45.0019C150.894 45.5787 151.013 46.1008 151.252 46.5682C151.501 47.0257 151.834 47.3887 152.251 47.6572C152.679 47.9257 153.156 48.06 153.684 48.06C154.211 48.06 154.673 47.9257 155.071 47.6572C155.479 47.3887 155.787 47.0307 155.996 46.5832L157.01 47.1351C156.841 47.5229 156.587 47.871 156.249 48.1793C155.911 48.4876 155.523 48.7312 155.086 48.9103C154.648 49.0893 154.181 49.1788 153.684 49.1788ZM162.613 49.1788C161.867 49.1788 161.191 48.9998 160.584 48.6417C159.988 48.2738 159.515 47.7716 159.167 47.1351C158.819 46.4986 158.645 45.7776 158.645 44.9721C158.645 44.1666 158.814 43.4555 159.152 42.8389C159.49 42.2124 159.948 41.7201 160.525 41.3621C161.111 41.0041 161.768 40.8251 162.494 40.8251C163.071 40.8251 163.583 40.9345 164.03 41.1533C164.488 41.3621 164.876 41.6505 165.194 42.0185C165.512 42.3765 165.756 42.7842 165.925 43.2417C166.094 43.6892 166.178 44.1516 166.178 44.629C166.178 44.7284 166.173 44.8428 166.163 44.9721C166.154 45.0914 166.139 45.2157 166.119 45.345H159.824C159.844 45.9218 159.983 46.4191 160.241 46.8368C160.51 47.2445 160.853 47.5627 161.271 47.7915C161.688 48.0202 162.136 48.1346 162.613 48.1346C163.2 48.1346 163.692 47.9953 164.09 47.7169C164.488 47.4384 164.811 47.0903 165.06 46.6727L166.014 47.1799C165.855 47.5379 165.612 47.871 165.283 48.1793C164.955 48.4777 164.562 48.7213 164.105 48.9103C163.657 49.0893 163.16 49.1788 162.613 49.1788ZM162.494 41.8693C162.056 41.8693 161.648 41.9688 161.271 42.1677C160.893 42.3665 160.574 42.65 160.316 43.0179C160.067 43.3759 159.913 43.8036 159.853 44.3008H164.97C164.96 43.8235 164.841 43.4058 164.612 43.0478C164.393 42.6798 164.095 42.3914 163.717 42.1826C163.349 41.9737 162.941 41.8693 162.494 41.8693Z" fill="#212121"/>
<defs>
<linearGradient id="paint0_linear_2636_1487" x1="5.93817" y1="23.9718" x2="57.9382" y2="24.2838" gradientUnits="userSpaceOnUse">
<stop stop-color="#1F4AC8"/>
<stop offset="1" stop-color="#163890"/>
</linearGradient>
<clipPath id="clip0_2636_1487">
<rect x="5.93817" width="52" height="52" rx="10" fill="white"/>
</clipPath>
</defs>
</svg>
