<?xml version="1.0" encoding="UTF-8"?>
<svg id="Layer_1" data-name="Layer 1" xmlns="http://www.w3.org/2000/svg" viewBox="0 0 784.21 486.19">
  <defs>
    <style>
      .cls-1 {
        letter-spacing: 0em;
      }

      .cls-1, .cls-2, .cls-3 {
        fill: #f96714;
      }

      .cls-4 {
        fill: #0006a6;
      }

      .cls-5 {
        font-family: Candal, Candal;
        font-size: 153.05px;
      }

      .cls-3 {
        letter-spacing: 0em;
      }
    </style>
  </defs>
  <polygon class="cls-2" points="455.87 0 334.65 156.35 278.14 86.05 278.14 213.72 229.21 213.72 229.21 0 274.48 0 334.1 78.73 393.16 0 455.87 0"/>
  <polygon class="cls-4" points="364.61 213.72 485.82 57.37 542.34 127.67 542.34 0 591.27 0 591.27 213.72 545.99 213.72 486.38 134.99 427.32 213.72 364.61 213.72"/>
  <g>
    <polygon class="cls-2" points="342.87 213.72 506.25 0 503.84 0 340.46 213.72 342.87 213.72"/>
    <polygon class="cls-4" points="318.21 213.72 481.59 0 479.18 0 315.8 213.72 318.21 213.72"/>
  </g>
  <text class="cls-5" transform="translate(0 411.68)"><tspan class="cls-4" x="0" y="0">MAD</tspan><tspan class="cls-1" x="360.28" y="0">W</tspan><tspan class="cls-3" x="514.37" y="0">E</tspan><tspan class="cls-2" x="612.33" y="0">LL</tspan></text>
</svg>