<svg width="225" height="52" viewBox="0 0 225 52" fill="none" xmlns="http://www.w3.org/2000/svg">
<g clip-path="url(#clip0_2636_1488)">
<mask id="mask0_2636_1488" style="mask-type:luminance" maskUnits="userSpaceOnUse" x="5" y="0" width="53" height="52">
<path d="M57.9382 0H5.93823V52H57.9382V0Z" fill="white"/>
</mask>
<g mask="url(#mask0_2636_1488)">
<path d="M57.9382 9.9292V42.0706C57.9382 47.5544 53.4928 51.9998 48.009 51.9998H15.8675C10.3837 51.9998 5.93823 47.5544 5.93823 42.0706V9.9292C5.93823 4.44542 10.3837 -0.000244141 15.8675 -0.000244141H48.009C53.4928 -0.000244141 57.9382 4.44542 57.9382 9.9292Z" fill="url(#paint0_linear_2636_1488)"/>
<path d="M37.9087 27.8576C38.2105 26.8033 38.2105 25.6855 37.9087 24.6313H40.4387C40.5211 24.6316 40.6028 24.6157 40.679 24.5843C40.7551 24.5529 40.8244 24.5068 40.8826 24.4485C40.9409 24.3902 40.987 24.321 41.0184 24.2448C41.0498 24.1686 41.0658 24.087 41.0654 24.0046C41.0692 23.9494 41.0613 23.8941 41.0422 23.8421C39.7192 18.9214 34.6592 15.9969 29.7385 17.3199C24.7945 18.6429 21.8932 23.7029 23.2161 28.6236C23.743 30.5838 24.9022 32.3152 26.5138 33.5491C28.1255 34.783 30.0994 35.4504 32.1292 35.4475H37.0731C37.2104 35.4469 37.3465 35.4736 37.4735 35.5258C37.6005 35.5781 37.7158 35.655 37.8129 35.7521C37.91 35.8492 37.987 35.9646 38.0393 36.0916C38.0915 36.2186 38.1182 36.3546 38.1176 36.492V37.6525C38.1182 37.7898 38.0916 37.9259 38.0393 38.0529C37.987 38.1799 37.9101 38.2953 37.813 38.3924C37.7159 38.4895 37.6005 38.5664 37.4735 38.6187C37.3465 38.671 37.2104 38.6976 37.0731 38.697H32.0363C25.189 38.697 19.6648 33.1497 19.6648 26.3023V26.1632C19.688 19.2696 25.2819 13.7222 32.1523 13.7222C39.046 13.7455 44.5934 19.3392 44.5703 26.2096C44.5741 26.4265 44.5664 26.6435 44.5471 26.8595C44.5352 27.1223 44.4223 27.3703 44.2321 27.5519C44.0418 27.7335 43.7888 27.8347 43.5258 27.8344L37.9087 27.8576Z" fill="white"/>
<path d="M38.2801 26.2326C38.2801 29.5518 35.5875 32.2442 32.2684 32.2442C31.3347 32.2449 30.4138 32.0269 29.5795 31.6077C28.7452 31.1885 28.0206 30.5798 27.4637 29.8303C27.3013 29.5982 27.3477 29.2732 27.5566 29.1108C27.6448 29.0488 27.7504 29.0163 27.8582 29.018H31.781L32.7094 28.0896V24.3759L31.781 23.4475H27.8351C27.7001 23.4463 27.5709 23.3921 27.4754 23.2966C27.3799 23.2011 27.3257 23.0719 27.3245 22.9369C27.3245 22.8208 27.3709 22.728 27.4173 22.6352C29.3904 19.966 33.1504 19.4321 35.8197 21.405C37.3981 22.5424 38.2801 24.3296 38.2801 26.2329" fill="white"/>
<path d="M42.5876 35.5449C43.123 35.5453 43.6364 35.7582 44.015 36.1368C44.3937 36.5154 44.6065 37.0288 44.6069 37.5643V37.9588C44.6082 38.0567 44.5899 38.1539 44.553 38.2446C44.5161 38.3353 44.4615 38.4177 44.3922 38.4869C44.323 38.5561 44.2406 38.6108 44.1499 38.6476C44.0592 38.6845 43.9621 38.7029 43.8642 38.7016H41.3109C41.213 38.7029 41.1159 38.6845 41.0252 38.6476C40.9345 38.6108 40.8521 38.5561 40.7829 38.4869C40.7136 38.4177 40.659 38.3353 40.6221 38.2446C40.5852 38.1539 40.5669 38.0567 40.5682 37.9588V37.5643C40.5686 37.0288 40.7815 36.5154 41.1601 36.1368C41.5387 35.7582 42.0521 35.5453 42.5876 35.5449Z" fill="white"/>
<path d="M42.5838 32.4116C42.8448 32.4116 43.1 32.4889 43.317 32.6339C43.5341 32.7788 43.7033 32.9849 43.8032 33.226C43.9031 33.4671 43.9293 33.7325 43.8784 33.9885C43.8275 34.2444 43.7019 34.4796 43.5173 34.6642C43.3328 34.8488 43.0977 34.9745 42.8417 35.0254C42.5857 35.0764 42.3204 35.0502 42.0792 34.9504C41.8381 34.8505 41.632 34.6814 41.487 34.4644C41.342 34.2474 41.2646 33.9922 41.2646 33.7312C41.2414 33.0136 41.8432 32.4116 42.5838 32.4116Z" fill="white"/>
</g>
</g>
<path d="M82.5479 21.1529L85.5388 24.2078C84.0595 25.7512 81.1979 26.7804 78.7539 26.7804C77.5927 26.8158 76.4365 26.6142 75.3558 26.188C74.2751 25.7618 73.2925 25.1199 72.468 24.3015C71.6435 23.483 70.9944 22.5052 70.5602 21.4277C70.1261 20.3501 69.916 19.1954 69.9428 18.034C69.9052 16.896 70.1 15.7623 70.5153 14.7022C70.9306 13.6421 71.5577 12.6778 72.3583 11.8682C73.1588 11.0586 74.1161 10.4207 75.1715 9.99359C76.2269 9.56644 77.3583 9.35896 78.4966 9.38383C83.7065 9.38383 86.7632 13.3388 86.7632 19.6096H74.7673C74.9945 20.4827 75.5073 21.2547 76.2242 21.8025C76.9411 22.3503 77.8207 22.6424 78.7228 22.6322C80.1317 22.6022 81.4854 22.0787 82.5479 21.1529ZM74.8307 16.2333H82.2589C82.0786 15.4341 81.6213 14.7244 80.968 14.23C80.3146 13.7356 79.5074 13.4883 78.6893 13.532C77.8437 13.5189 77.0155 13.7729 76.3226 14.258C75.6298 14.743 75.1077 15.4342 74.8307 16.2333Z" fill="white"/>
<path d="M90.2644 4.30322H98.1749C105.603 4.30322 110.876 8.86914 110.876 15.3327C110.876 21.7962 105.602 26.3963 98.1749 26.3963H90.2644V4.30322ZM98.7859 22.0858C102.998 22.0858 105.989 19.2888 105.989 15.3333C105.989 11.41 102.999 8.61243 98.7859 8.61243H94.9944V22.0858H98.7859Z" fill="white"/>
<path d="M126.086 21.1529L129.077 24.2078C127.597 25.7512 124.736 26.7804 122.292 26.7804C121.131 26.8158 119.974 26.6142 118.894 26.188C117.813 25.7618 116.83 25.1199 116.006 24.3015C115.181 23.483 114.532 22.5052 114.098 21.4277C113.664 20.3501 113.454 19.1954 113.481 18.034C113.443 16.896 113.638 15.7623 114.053 14.7022C114.468 13.6421 115.096 12.6778 115.896 11.8682C116.697 11.0586 117.654 10.4207 118.709 9.99359C119.765 9.56644 120.896 9.35896 122.034 9.38383C127.244 9.38383 130.301 13.3388 130.301 19.6096H118.305C118.532 20.483 119.044 21.2552 119.761 21.8031C120.478 22.351 121.358 22.6429 122.26 22.6322C123.669 22.6024 125.024 22.0789 126.086 21.1529ZM118.369 16.2333H125.797C125.617 15.4342 125.16 14.7246 124.507 14.2302C123.854 13.7358 123.046 13.4885 122.228 13.532C121.383 13.5186 120.554 13.7725 119.861 14.2576C119.168 14.7426 118.646 15.434 118.369 16.2333Z" fill="white"/>
<path d="M159.398 15.815V26.4267H154.896V16.6193C154.896 14.6925 153.674 13.3393 151.938 13.3393C151.525 13.3111 151.11 13.3685 150.72 13.5078C150.33 13.6472 149.973 13.8656 149.671 14.1493C149.369 14.433 149.129 14.776 148.966 15.1567C148.803 15.5374 148.72 15.9477 148.723 16.3619V26.4267H144.221V16.6193C144.221 14.6925 142.999 13.3393 141.294 13.3393C139.397 13.3393 138.078 14.5936 138.078 16.3619V26.395H133.383V9.76975H138.078V11.9564C138.51 11.1469 139.162 10.476 139.958 10.0208C140.755 9.56565 141.664 9.34483 142.58 9.38379C143.651 9.36298 144.707 9.63313 145.635 10.1655C146.564 10.6978 147.331 11.4723 147.854 12.4064C148.724 10.5734 150.781 9.38379 153.256 9.38379C156.729 9.38379 159.398 12.0527 159.398 15.815Z" fill="white"/>
<path d="M178.081 16.4598V26.3959H173.547V24.7239C172.919 25.3861 172.16 25.9109 171.319 26.2651C170.477 26.6193 169.572 26.7953 168.659 26.7819C165.122 26.7819 162.388 24.6593 162.388 21.4757C162.388 18.1958 165.443 15.9439 169.302 15.9439C170.756 15.963 172.194 16.2463 173.547 16.7799V16.4598C173.547 14.6908 172.454 13.1475 169.721 13.1475C168.21 13.1958 166.733 13.6037 165.411 14.3372L163.836 11.2182C165.972 10.063 168.353 9.43461 170.782 9.38525C175.122 9.38401 178.081 12.117 178.081 16.4598ZM173.547 21.1543V19.611C172.401 19.2025 171.194 18.9958 169.977 19C168.273 19 166.922 19.9946 166.922 21.3477C166.922 22.7008 168.112 23.5343 169.719 23.5343C171.521 23.5324 173.225 22.6964 173.547 21.1531V21.1543Z" fill="white"/>
<path d="M197.823 15.8151V26.3945H193.289V16.8121C193.289 14.7541 192.003 13.3394 190.138 13.3394C189.698 13.3174 189.257 13.3837 188.843 13.5342C188.428 13.6848 188.048 13.9168 187.725 14.2164C187.401 14.516 187.141 14.8772 186.959 15.2789C186.777 15.6806 186.677 16.1146 186.665 16.5554L186.633 16.459V26.3952H181.938V9.76988H186.633V11.8601C187.2 11.066 187.955 10.4244 188.831 9.99241C189.706 9.5604 190.674 9.35137 191.65 9.38391C195.251 9.38391 197.823 12.0528 197.823 15.8151Z" fill="white"/>
<path d="M218.885 3.91724V26.3944H214.191V24.0151C213.545 24.8875 212.701 25.5934 211.728 26.0743C210.755 26.5552 209.682 26.7973 208.597 26.7804C204.159 26.7804 200.944 23.1791 200.944 18.0656C200.944 12.9851 204.159 9.38317 208.597 9.38317C209.682 9.36632 210.755 9.60841 211.728 10.0893C212.701 10.5702 213.545 11.2761 214.191 12.1485V3.91724H218.885ZM214.191 18.0663C214.191 15.301 212.422 13.3393 209.946 13.3393C207.342 13.3393 205.508 15.301 205.508 18.0663C205.508 20.8633 207.341 22.8255 209.946 22.8255C212.422 22.8249 214.191 20.8639 214.191 18.0663Z" fill="white"/>
<path d="M71.251 48.9998V37.8864H72.4443V42.8837H78.4112V37.8864H79.6046V48.9998H78.4112V44.0025H72.4443V48.9998H71.251ZM85.8151 49.1788C85.0593 49.1788 84.3731 48.9998 83.7565 48.6417C83.1399 48.2738 82.6477 47.7765 82.2797 47.15C81.9217 46.5135 81.7427 45.7925 81.7427 44.987C81.7427 44.1914 81.9217 43.4804 82.2797 42.8538C82.6377 42.2273 83.12 41.7351 83.7267 41.377C84.3433 41.0091 85.0394 40.8251 85.8151 40.8251C86.5908 40.8251 87.282 41.0041 87.8886 41.3621C88.5052 41.7201 88.9875 42.2124 89.3356 42.8389C89.6936 43.4655 89.8726 44.1815 89.8726 44.987C89.8726 45.8025 89.6886 46.5285 89.3206 47.1649C88.9527 47.7915 88.4604 48.2837 87.8438 48.6417C87.2372 48.9998 86.561 49.1788 85.8151 49.1788ZM85.8151 48.06C86.3521 48.06 86.8344 47.9257 87.2621 47.6572C87.6996 47.3887 88.0427 47.0207 88.2914 46.5533C88.5499 46.0859 88.6792 45.5638 88.6792 44.987C88.6792 44.4102 88.5499 43.8931 88.2914 43.4356C88.0427 42.9782 87.6996 42.6152 87.2621 42.3467C86.8344 42.0781 86.3521 41.9439 85.8151 41.9439C85.2781 41.9439 84.7908 42.0781 84.3532 42.3467C83.9256 42.6152 83.5825 42.9782 83.3239 43.4356C83.0653 43.8931 82.9361 44.4102 82.9361 44.987C82.9361 45.5638 83.0653 46.0859 83.3239 46.5533C83.5825 47.0207 83.9256 47.3887 84.3532 47.6572C84.7908 47.9257 85.2781 48.06 85.8151 48.06ZM91.8457 48.9998V41.0041H92.9645V42.5257L92.7855 42.3019C93.0043 41.8345 93.3275 41.4715 93.7551 41.2129C94.1927 40.9544 94.6701 40.8251 95.1872 40.8251C95.8038 40.8251 96.3607 40.9991 96.8579 41.3472C97.3552 41.6953 97.7082 42.1478 97.9171 42.7047L97.6038 42.7196C97.8027 42.103 98.1458 41.6356 98.6331 41.3174C99.1303 40.9892 99.6773 40.8251 100.274 40.8251C100.811 40.8251 101.303 40.9544 101.751 41.2129C102.208 41.4715 102.571 41.8295 102.84 42.287C103.118 42.7345 103.257 43.2417 103.257 43.8086V48.9998H102.139V44.2412C102.139 43.7539 102.049 43.3411 101.87 43.003C101.701 42.6649 101.467 42.4063 101.169 42.2273C100.871 42.0384 100.528 41.9439 100.14 41.9439C99.7618 41.9439 99.4187 42.0384 99.1104 42.2273C98.8022 42.4063 98.5585 42.6699 98.3795 43.0179C98.2005 43.3561 98.111 43.7638 98.111 44.2412V48.9998H96.9922V44.2412C96.9922 43.7539 96.9027 43.3411 96.7237 43.003C96.5546 42.6649 96.3209 42.4063 96.0226 42.2273C95.7242 42.0384 95.3811 41.9439 94.9933 41.9439C94.6054 41.9439 94.2574 42.0384 93.9491 42.2273C93.6507 42.4063 93.4121 42.6699 93.233 43.0179C93.054 43.3561 92.9645 43.7638 92.9645 44.2412V48.9998H91.8457ZM109.033 49.1788C108.288 49.1788 107.611 48.9998 107.005 48.6417C106.408 48.2738 105.936 47.7716 105.588 47.1351C105.239 46.4986 105.065 45.7776 105.065 44.9721C105.065 44.1666 105.235 43.4555 105.573 42.8389C105.911 42.2124 106.368 41.7201 106.945 41.3621C107.532 41.0041 108.188 40.8251 108.914 40.8251C109.491 40.8251 110.003 40.9345 110.451 41.1533C110.908 41.3621 111.296 41.6505 111.614 42.0185C111.932 42.3765 112.176 42.7842 112.345 43.2417C112.514 43.6892 112.599 44.1516 112.599 44.629C112.599 44.7284 112.594 44.8428 112.584 44.9721C112.574 45.0914 112.559 45.2157 112.539 45.345H105.781V44.3008H111.898L111.361 44.7483C111.45 44.2014 111.385 43.7141 111.167 43.2864C110.958 42.8489 110.654 42.5058 110.257 42.2572C109.859 41.9986 109.411 41.8693 108.914 41.8693C108.417 41.8693 107.954 41.9986 107.527 42.2572C107.109 42.5157 106.781 42.8787 106.542 43.3461C106.304 43.8036 106.209 44.3505 106.259 44.987C106.209 45.6235 106.309 46.1804 106.557 46.6577C106.816 47.1252 107.164 47.4881 107.601 47.7467C108.049 48.0053 108.526 48.1346 109.033 48.1346C109.62 48.1346 110.112 47.9953 110.51 47.7169C110.908 47.4384 111.231 47.0903 111.48 46.6727L112.435 47.1799C112.275 47.5379 112.032 47.871 111.704 48.1793C111.375 48.4777 110.983 48.7213 110.525 48.9103C110.078 49.0893 109.58 49.1788 109.033 49.1788ZM119.881 49.1788C119.115 49.1788 118.444 48.9848 117.867 48.597C117.29 48.2091 116.872 47.6821 116.614 47.0158L117.554 46.5682C117.782 47.0555 118.101 47.4434 118.508 47.7318C118.926 48.0202 119.383 48.1644 119.881 48.1644C120.358 48.1644 120.761 48.05 121.089 47.8213C121.417 47.5826 121.581 47.2743 121.581 46.8964C121.581 46.618 121.502 46.3992 121.343 46.2401C121.183 46.071 120.999 45.9417 120.791 45.8522C120.582 45.7627 120.398 45.6981 120.239 45.6583L119.09 45.3301C118.354 45.1213 117.822 44.8279 117.494 44.45C117.166 44.0721 117.002 43.6345 117.002 43.1373C117.002 42.6699 117.121 42.2621 117.36 41.9141C117.598 41.566 117.921 41.2975 118.329 41.1085C118.737 40.9196 119.189 40.8251 119.687 40.8251C120.363 40.8251 120.975 41.0041 121.522 41.3621C122.078 41.7102 122.471 42.1975 122.7 42.824L121.745 43.2715C121.546 42.824 121.258 42.4759 120.88 42.2273C120.512 41.9688 120.099 41.8395 119.642 41.8395C119.194 41.8395 118.836 41.9538 118.568 42.1826C118.299 42.4113 118.165 42.6997 118.165 43.0478C118.165 43.3163 118.235 43.5301 118.374 43.6892C118.513 43.8483 118.672 43.9677 118.851 44.0472C119.04 44.1268 119.204 44.1865 119.344 44.2262L120.671 44.6141C121.318 44.803 121.82 45.0964 122.178 45.4942C122.546 45.892 122.73 46.3594 122.73 46.8964C122.73 47.334 122.606 47.7268 122.357 48.0749C122.118 48.423 121.785 48.6964 121.357 48.8953C120.93 49.0843 120.438 49.1788 119.881 49.1788ZM128.336 49.1788C127.59 49.1788 126.913 48.9998 126.307 48.6417C125.71 48.2738 125.238 47.7716 124.89 47.1351C124.542 46.4986 124.368 45.7776 124.368 44.9721C124.368 44.1666 124.537 43.4555 124.875 42.8389C125.213 42.2124 125.67 41.7201 126.247 41.3621C126.834 41.0041 127.49 40.8251 128.216 40.8251C128.793 40.8251 129.305 40.9345 129.753 41.1533C130.21 41.3621 130.598 41.6505 130.916 42.0185C131.234 42.3765 131.478 42.7842 131.647 43.2417C131.816 43.6892 131.901 44.1516 131.901 44.629C131.901 44.7284 131.896 44.8428 131.886 44.9721C131.876 45.0914 131.861 45.2157 131.841 45.345H125.084V44.3008H131.2L130.663 44.7483C130.752 44.2014 130.688 43.7141 130.469 43.2864C130.26 42.8489 129.957 42.5058 129.559 42.2572C129.161 41.9986 128.713 41.8693 128.216 41.8693C127.719 41.8693 127.257 41.9986 126.829 42.2572C126.411 42.5157 126.083 42.8787 125.844 43.3461C125.606 43.8036 125.511 44.3505 125.561 44.987C125.511 45.6235 125.611 46.1804 125.859 46.6577C126.118 47.1252 126.466 47.4881 126.904 47.7467C127.351 48.0053 127.828 48.1346 128.336 48.1346C128.922 48.1346 129.415 47.9953 129.812 47.7169C130.21 47.4384 130.533 47.0903 130.782 46.6727L131.737 47.1799C131.578 47.5379 131.334 47.871 131.006 48.1793C130.678 48.4777 130.285 48.7213 129.827 48.9103C129.38 49.0893 128.883 49.1788 128.336 49.1788ZM133.873 48.9998V41.0041H134.992V42.3168L134.843 42.1229C135.032 41.745 135.315 41.4467 135.693 41.2279C136.081 41.0091 136.549 40.8997 137.095 40.8997H137.603V42.0185H136.902C136.325 42.0185 135.862 42.1975 135.514 42.5555C135.166 42.9135 134.992 43.4207 134.992 44.0771V48.9998H133.873ZM141.047 48.9998L137.929 41.0041H139.182L141.808 48.0152H141.405L144.045 41.0041H145.313L142.166 48.9998H141.047ZM146.62 48.9998V41.0041H147.739V48.9998H146.62ZM146.62 39.5273V37.8864H147.739V39.5273H146.62ZM153.684 49.1788C152.898 49.1788 152.207 48.9948 151.61 48.6268C151.013 48.2589 150.546 47.7616 150.208 47.1351C149.87 46.4986 149.701 45.7826 149.701 44.987C149.701 44.1914 149.87 43.4804 150.208 42.8538C150.546 42.2273 151.013 41.7351 151.61 41.377C152.207 41.0091 152.898 40.8251 153.684 40.8251C154.181 40.8251 154.648 40.9146 155.086 41.0936C155.523 41.2726 155.911 41.5163 156.249 41.8246C156.587 42.1229 156.841 42.471 157.01 42.8688L155.996 43.3909C155.797 42.9632 155.494 42.6152 155.086 42.3467C154.678 42.0781 154.211 41.9439 153.684 41.9439C153.157 41.9439 152.679 42.0781 152.252 42.3467C151.834 42.6052 151.501 42.9682 151.252 43.4356C151.013 43.8931 150.894 44.4152 150.894 45.0019C150.894 45.5787 151.013 46.1008 151.252 46.5682C151.501 47.0257 151.834 47.3887 152.252 47.6572C152.679 47.9257 153.157 48.06 153.684 48.06C154.211 48.06 154.673 47.9257 155.071 47.6572C155.479 47.3887 155.787 47.0307 155.996 46.5832L157.01 47.1351C156.841 47.5229 156.587 47.871 156.249 48.1793C155.911 48.4876 155.523 48.7312 155.086 48.9103C154.648 49.0893 154.181 49.1788 153.684 49.1788ZM162.613 49.1788C161.867 49.1788 161.191 48.9998 160.584 48.6417C159.988 48.2738 159.515 47.7716 159.167 47.1351C158.819 46.4986 158.645 45.7776 158.645 44.9721C158.645 44.1666 158.814 43.4555 159.152 42.8389C159.491 42.2124 159.948 41.7201 160.525 41.3621C161.112 41.0041 161.768 40.8251 162.494 40.8251C163.071 40.8251 163.583 40.9345 164.03 41.1533C164.488 41.3621 164.876 41.6505 165.194 42.0185C165.512 42.3765 165.756 42.7842 165.925 43.2417C166.094 43.6892 166.178 44.1516 166.178 44.629C166.178 44.7284 166.173 44.8428 166.164 44.9721C166.154 45.0914 166.139 45.2157 166.119 45.345H159.361V44.3008H165.477L164.94 44.7483C165.03 44.2014 164.965 43.7141 164.746 43.2864C164.538 42.8489 164.234 42.5058 163.836 42.2572C163.439 41.9986 162.991 41.8693 162.494 41.8693C161.997 41.8693 161.534 41.9986 161.107 42.2572C160.689 42.5157 160.361 42.8787 160.122 43.3461C159.883 43.8036 159.789 44.3505 159.839 44.987C159.789 45.6235 159.888 46.1804 160.137 46.6577C160.396 47.1252 160.744 47.4881 161.181 47.7467C161.629 48.0053 162.106 48.1346 162.613 48.1346C163.2 48.1346 163.692 47.9953 164.09 47.7169C164.488 47.4384 164.811 47.0903 165.06 46.6727L166.014 47.1799C165.855 47.5379 165.612 47.871 165.283 48.1793C164.955 48.4777 164.562 48.7213 164.105 48.9103C163.657 49.0893 163.16 49.1788 162.613 49.1788Z" fill="white"/>
<defs>
<linearGradient id="paint0_linear_2636_1488" x1="5.93823" y1="23.9718" x2="57.9382" y2="24.2838" gradientUnits="userSpaceOnUse">
<stop stop-color="#1F4AC8"/>
<stop offset="1" stop-color="#163890"/>
</linearGradient>
<clipPath id="clip0_2636_1488">
<rect x="5.93823" width="52" height="52" rx="10" fill="white"/>
</clipPath>
</defs>
</svg>
