<svg width="102" height="102" viewBox="0 0 102 102" fill="none" xmlns="http://www.w3.org/2000/svg">
 <path d="M74.1967 57.4877C75.424 53.2001 75.424 48.6542 74.1967 44.3666H84.4862C84.8213 44.368 85.1533 44.3031 85.4632 44.1755C85.773 44.0479 86.0546 43.8602 86.2915 43.6233C86.5285 43.3863 86.7162 43.1048 86.8438 42.795C86.9714 42.4851 87.0363 42.1531 87.0349 41.818C87.0501 41.5935 87.0179 41.3684 86.9405 41.1572C81.5599 21.145 60.9812 9.25111 40.9689 14.6316C20.8622 20.0123 9.06277 40.5908 14.4431 60.603C16.5856 68.575 21.3001 75.6167 27.8546 80.6349C34.4091 85.6531 42.4369 88.3671 50.6919 88.3555H70.7983C71.3568 88.3532 71.9103 88.4614 72.4267 88.6741C72.9431 88.8867 73.4123 89.1995 73.8073 89.5944C74.2022 89.9893 74.515 90.4585 74.7277 90.9749C74.9403 91.4913 75.0486 92.0447 75.0463 92.6032V97.3231C75.0486 97.8816 74.9404 98.435 74.7277 98.9514C74.5151 99.4679 74.2023 99.9371 73.8074 100.332C73.4124 100.727 72.9432 101.04 72.4268 101.252C71.9104 101.465 71.357 101.573 70.7985 101.571H50.314C22.4667 101.571 0 79.0102 0 51.1626V50.5967C0.0944278 22.561 22.8442 0 50.7859 0C78.8222 0.0950667 101.383 22.844 101.289 50.7855C101.305 51.6677 101.273 52.55 101.195 53.4287C101.146 54.4973 100.687 55.506 99.9134 56.2446C99.1396 56.9832 98.1107 57.3947 97.041 57.3934L74.1967 57.4877Z" fill="url(#paint0_linear_3054_5548)"/>
 <path d="M75.7072 50.88C75.7072 64.3788 64.7566 75.3289 51.2581 75.3289C47.4607 75.3315 43.7155 74.4449 40.3224 72.7401C36.9292 71.0354 33.9824 68.5598 31.7178 65.5116C31.057 64.5677 31.2458 63.246 32.0954 62.5855C32.4541 62.3333 32.8835 62.2012 33.322 62.208H49.2757L53.0517 58.4322V43.3289L49.2757 39.553H33.2281C32.6788 39.5481 32.1535 39.3278 31.7651 38.9394C31.3767 38.551 31.1563 38.0256 31.1513 37.4764C31.1513 37.0042 31.3402 36.6268 31.5289 36.2497C39.5534 25.394 54.8452 23.2229 65.7009 31.2466C72.1199 35.8721 75.7071 43.1405 75.7071 50.8812" fill="url(#paint1_linear_3054_5548)"/>
 <path d="M93.2255 88.7521C95.4032 88.7536 97.4911 89.6194 99.031 91.1592C100.571 92.699 101.437 94.787 101.438 96.9646V98.5692C101.443 98.9674 101.369 99.3625 101.219 99.7313C101.069 100.1 100.847 100.435 100.565 100.717C100.284 100.998 99.9484 101.221 99.5796 101.371C99.2108 101.521 98.8156 101.595 98.4175 101.59H88.0335C87.6354 101.595 87.2403 101.521 86.8714 101.371C86.5026 101.221 86.1675 100.998 85.886 100.717C85.6045 100.435 85.3821 100.1 85.2322 99.7313C85.0822 99.3625 85.0077 98.9674 85.0129 98.5692V96.9646C85.0144 94.787 85.8802 92.699 87.4201 91.1592C88.9599 89.6194 91.0479 88.7536 93.2255 88.7521Z" fill="url(#paint2_linear_3054_5548)"/>
 <path d="M93.2102 76.0094C94.2717 76.0091 95.3094 76.3237 96.1921 76.9132C97.0748 77.5028 97.7629 78.3408 98.1693 79.3214C98.5756 80.3021 98.6821 81.3811 98.4752 82.4223C98.2682 83.4634 97.7572 84.4198 97.0067 85.1704C96.2562 85.9211 95.3 86.4323 94.2589 86.6395C93.2179 86.8467 92.1387 86.7405 91.158 86.3343C90.1773 85.9282 89.3391 85.2403 88.7493 84.3578C88.1596 83.4752 87.8448 82.4375 87.8448 81.3761C87.7506 78.4575 90.1981 76.0094 93.2102 76.0094Z" fill="url(#paint3_linear_3054_5548)"/>
 <defs>
  <linearGradient id="paint0_linear_3054_5548" x1="-8.48779" y1="-28.9945" x2="127.483" y2="102.309" gradientUnits="userSpaceOnUse">
   <stop stop-color="#969696"/>
   <stop offset="1" stop-color="#A0A0A0"/>
  </linearGradient>
  <linearGradient id="paint1_linear_3054_5548" x1="27.4178" y1="12.4508" x2="92.4261" y2="69.7903" gradientUnits="userSpaceOnUse">
   <stop stop-color="#969696"/>
   <stop offset="1" stop-color="#A0A0A0"/>
  </linearGradient>
  <linearGradient id="paint2_linear_3054_5548" x1="83.6362" y1="85.0873" x2="100.446" y2="105.913" gradientUnits="userSpaceOnUse">
   <stop stop-color="#969696"/>
   <stop offset="1" stop-color="#A0A0A0"/>
  </linearGradient>
  <linearGradient id="paint3_linear_3054_5548" x1="86.9426" y1="72.9455" x2="101.312" y2="86.8636" gradientUnits="userSpaceOnUse">
   <stop stop-color="#969696"/>
   <stop offset="1" stop-color="#A0A0A0"/>
  </linearGradient>
 </defs>
</svg>
