<?xml version="1.0" encoding="UTF-8"?>
<svg id="Layer_1" data-name="Layer 1" xmlns="http://www.w3.org/2000/svg" viewBox="0 0 1318.27 535.52">
  <defs>
    <style>
      .cls-1 {
        font-family: Candal, Candal;
        font-size: 12px;
      }

      .cls-2 {
        fill: #0006a6;
      }

      .cls-3 {
        fill: #f96714;
      }
    </style>
  </defs>
  <polygon class="cls-3" points="559.75 0 260.41 386.12 120.84 212.51 120.84 527.81 0 527.81 0 0 111.81 0 259.04 194.43 404.88 0 559.75 0"/>
  <polygon class="cls-2" points="334.39 527.81 633.73 141.68 773.3 315.29 773.3 0 894.14 0 894.14 527.81 782.33 527.81 635.1 333.38 489.26 527.81 334.39 527.81"/>
  <g>
    <polygon class="cls-3" points="280.7 527.81 684.18 0 678.22 0 274.74 527.81 280.7 527.81"/>
    <polygon class="cls-2" points="219.8 527.81 623.28 0 617.32 0 213.84 527.81 219.8 527.81"/>
  </g>
  <text class="cls-1" transform="translate(1229.74 529.68)"><tspan x="0" y="0">Lorem ipsum</tspan></text>
</svg>